<svg width="76" height="76" viewBox="0 0 76 76" fill="none" xmlns="http://www.w3.org/2000/svg">
<path d="M75.769 34.3112C75.6549 33.3367 75.1844 32.4389 74.448 31.7907C73.7116 31.1424 72.7614 30.7895 71.7804 30.8C71.4051 30.7978 71.0412 30.6711 70.7458 30.4398C70.4503 30.2084 70.2401 29.8855 70.148 29.5218C69.3945 26.833 68.3135 24.247 66.9294 21.8218C66.7373 21.4977 66.6588 21.1188 66.7062 20.7451C66.7536 20.3713 66.9243 20.0241 67.1912 19.7582C67.9436 18.9937 68.3689 17.9664 68.377 16.8938C68.3812 16.0097 68.0822 15.1509 67.53 14.4606C66.7446 13.4904 65.99 12.5664 65.0506 11.6732L64.3884 11.011C63.4952 10.1332 62.5712 9.31697 61.601 8.53157C60.8302 7.92814 59.8645 7.62922 58.8876 7.69169C57.9108 7.75416 56.991 8.17368 56.3034 8.87037C55.989 9.1853 55.5625 9.36256 55.1176 9.36317C54.81 9.36303 54.5076 9.28346 54.2398 9.13217C51.8146 7.74804 49.2285 6.66708 46.5398 5.91357C46.1542 5.83123 45.8095 5.61699 45.5649 5.30777C45.3203 4.99855 45.1913 4.61371 45.2 4.21957C45.2019 3.2346 44.8462 2.28242 44.199 1.53997C43.556 0.804326 42.66 0.337124 41.6888 0.230966C38.9047 -0.0769885 36.0952 -0.0769885 33.3112 0.230966C32.3367 0.34499 31.4389 0.81551 30.7907 1.55191C30.1424 2.28832 29.7895 3.23853 29.8 4.21957C29.7978 4.5948 29.6711 4.9587 29.4398 5.25415C29.2084 5.54959 28.8855 5.75987 28.5218 5.85197C25.833 6.60548 23.247 7.68644 20.8218 9.07057C20.4977 9.2626 20.1188 9.34112 19.7451 9.29371C19.3713 9.24629 19.0241 9.07565 18.7582 8.80877C18.3689 8.43843 17.9095 8.14958 17.407 7.95917C16.9046 7.76877 16.3691 7.68064 15.8322 7.69997C14.9489 7.70063 14.0917 7.99904 13.399 8.54697C12.4288 9.33237 11.5048 10.087 10.6116 11.0264L9.94937 11.6886C9.07157 12.5048 8.23997 13.4288 7.46997 14.399C6.86977 15.171 6.57287 16.1361 6.63528 17.112C6.69769 18.0879 7.1151 19.0072 7.80877 19.6966C8.1237 20.0109 8.30096 20.4374 8.30157 20.8824C8.30143 21.19 8.22186 21.4923 8.07057 21.7602C6.68644 24.1854 5.60548 26.7714 4.85197 29.4602C4.77179 29.8353 4.56664 30.1722 4.27009 30.4156C3.97355 30.659 3.60317 30.7945 3.21957 30.8C2.2346 30.798 1.28242 31.1537 0.539966 31.801C-0.195674 32.444 -0.662876 33.3399 -0.769034 34.3112C-1.07699 37.0952 -1.07699 39.9047 -0.769034 42.6888C-0.65501 43.6632 -0.18449 44.561 0.551914 45.2093C1.28832 45.8575 2.23853 46.2104 3.21957 46.2C3.5948 46.2021 3.9587 46.3288 4.25415 46.5602C4.54959 46.7915 4.75987 47.1144 4.85197 47.4782C5.60548 50.167 6.68644 52.753 8.07057 55.1782C8.2626 55.5023 8.34112 55.8812 8.29371 56.2549C8.24629 56.6286 8.07565 56.9759 7.80877 57.2418C7.43843 57.6311 7.14958 58.0905 6.95917 58.5929C6.76877 59.0954 6.68064 59.6308 6.69997 60.1678C6.70063 61.051 6.99904 61.9082 7.54697 62.601C8.33237 63.5712 9.08697 64.4952 10.0264 65.3884L10.6886 66.0506C11.5818 66.9284 12.5058 67.7446 13.476 68.53C14.248 69.1302 15.2131 69.4271 16.189 69.3647C17.1649 69.3022 18.0842 68.8848 18.7736 68.1912C19.0879 67.8762 19.5144 67.699 19.9594 67.6984C20.267 67.6985 20.5693 67.7781 20.8372 67.9294C23.2624 69.3135 25.8484 70.3945 28.5372 71.148C28.8981 71.243 29.2175 71.4545 29.4459 71.7497C29.6742 72.0448 29.7987 72.4072 29.8 72.7804C29.798 73.7653 30.1537 74.7175 30.801 75.46C31.444 76.1956 32.3399 76.6628 33.3112 76.769C36.0952 77.0769 38.9047 77.0769 41.6888 76.769C42.6632 76.6549 43.561 76.1844 44.2093 75.448C44.8575 74.7116 45.2104 73.7614 45.2 72.7804C45.2021 72.4051 45.3288 72.0412 45.5602 71.7458C45.7915 71.4503 46.1144 71.2401 46.4782 71.148C49.167 70.3945 51.753 69.3135 54.1782 67.9294C54.5023 67.7373 54.8812 67.6588 55.2549 67.7062C55.6286 67.7536 55.9759 67.9243 56.2418 68.1912C57.0062 68.9436 58.0336 69.3689 59.1062 69.377C59.9902 69.3812 60.849 69.0822 61.5394 68.53C62.5096 67.7446 63.4336 66.99 64.3268 66.0506L64.989 65.3884C65.8668 64.4952 66.683 63.5712 67.4684 62.601C68.0718 61.8302 68.3707 60.8645 68.3082 59.8876C68.2458 58.9108 67.8263 57.991 67.1296 57.3034C66.8146 56.989 66.6374 56.5625 66.6368 56.1176C66.6369 55.81 66.7165 55.5076 66.8678 55.2398C68.2519 52.8146 69.3329 50.2285 70.0864 47.5398C70.1687 47.1542 70.3829 46.8095 70.6922 46.5649C71.0014 46.3203 71.3862 46.1913 71.7804 46.2C72.7653 46.2019 73.7175 45.8462 74.46 45.199C75.1956 44.556 75.6628 43.66 75.769 42.6888C76.0769 39.9047 76.0769 37.0952 75.769 34.3112ZM37.5 66.22C32.0175 66.22 26.6581 64.5942 22.0996 61.5483C17.541 58.5024 13.9881 54.1731 11.89 49.108C9.79197 44.0428 9.24302 38.4692 10.3126 33.0921C11.3822 27.7149 14.0223 22.7757 17.899 18.899C21.7757 15.0223 26.7149 12.3822 32.0921 11.3126C37.4692 10.243 43.0428 10.792 48.108 12.89C53.1731 14.9881 57.5024 18.541 60.5483 23.0996C63.5942 27.6581 65.22 33.0175 65.22 38.5C65.22 45.8518 62.2995 52.9025 57.101 58.101C51.9025 63.2995 44.8518 66.22 37.5 66.22Z" fill="#111111"/>
<path d="M37.5005 26.1805C39.9371 26.1805 42.3191 26.903 44.3451 28.2568C46.3711 29.6105 47.9502 31.5346 48.8827 33.7858C49.8151 36.037 50.0591 38.5141 49.5838 40.904C49.1084 43.2938 47.935 45.489 46.212 47.212C44.489 48.935 42.2938 50.1084 39.904 50.5837C37.5141 51.0591 35.037 50.8151 32.7858 49.8827C30.5346 48.9502 28.6105 47.3711 27.2568 45.3451C25.903 43.3191 25.1805 40.9371 25.1805 38.5005C25.1805 35.233 26.4785 32.0994 28.7889 29.7889C31.0994 27.4785 34.233 26.1805 37.5005 26.1805ZM37.5005 18.4805C33.5409 18.4805 29.6702 19.6546 26.378 21.8544C23.0857 24.0543 20.5197 27.181 19.0044 30.8391C17.4891 34.4973 17.0927 38.5227 17.8652 42.4062C18.6376 46.2897 20.5444 49.8569 23.3442 52.6567C26.144 55.4566 29.7113 57.3633 33.5948 58.1358C37.4783 58.9083 41.5036 58.5118 45.1618 56.9965C48.82 55.4813 51.9467 52.9153 54.1465 49.623C56.3463 46.3307 57.5205 42.4601 57.5205 38.5005C57.5205 35.8714 57.0026 33.2681 55.9965 30.8391C54.9904 28.4102 53.5158 26.2032 51.6568 24.3442C49.7977 22.4852 47.5907 21.0105 45.1618 20.0044C42.7329 18.9983 40.1295 18.4805 37.5005 18.4805Z" fill="#359144"/>
</svg>
