<svg width="68" height="78" viewBox="0 0 68 78" fill="none" xmlns="http://www.w3.org/2000/svg">
<path d="M44.0455 16.7073C44.0471 17.4218 44.2424 18.1222 44.6102 18.7326C44.9779 19.3431 45.5042 19.8403 46.1318 20.1705C51.3489 22.912 55.5037 27.3413 57.931 32.7492C60.3584 38.157 60.9178 44.2306 59.5198 49.9975C58.1217 55.7644 54.8471 60.8909 50.2202 64.5563C45.5932 68.2217 39.8817 70.2138 34 70.2138C28.1184 70.2138 22.4068 68.2217 17.7799 64.5563C13.153 60.8909 9.87831 55.7644 8.48027 49.9975C7.08223 44.2306 7.64167 38.157 10.069 32.7492C12.4963 27.3413 16.6512 22.912 21.8682 20.1705C22.4958 19.8443 23.0224 19.3501 23.3903 18.7421C23.7583 18.134 23.9535 17.4355 23.9546 16.7229C23.95 16.0502 23.7746 15.3899 23.4449 14.8052C23.1153 14.2205 22.6425 13.731 22.0718 13.3835C21.5012 13.036 20.8517 12.8421 20.1856 12.8205C19.5194 12.7988 18.8589 12.95 18.2673 13.2597C11.5224 16.8135 6.15335 22.5481 3.01905 29.5462C-0.115255 36.5443 -0.83363 44.4013 0.978858 51.8602C2.79135 59.3191 7.02995 65.9488 13.0165 70.6887C19.0031 75.4285 26.3916 78.0044 34 78.0044C41.6084 78.0044 48.997 75.4285 54.9835 70.6887C60.9701 65.9488 65.2087 59.3191 67.0212 51.8602C68.8337 44.4013 68.1153 36.5443 64.981 29.5462C61.8467 22.5481 56.4776 16.8135 49.7327 13.2597C49.1423 12.9506 48.4832 12.7993 47.8183 12.8203C47.1535 12.8412 46.505 13.0337 45.9347 13.3794C45.3645 13.7251 44.8915 14.2124 44.5607 14.795C44.23 15.3776 44.0526 16.0359 44.0455 16.7073Z" fill="#111111"/>
<path d="M37.864 3.9C37.864 1.74609 36.1342 0 34.0004 0C31.8665 0 30.1367 1.74609 30.1367 3.9V38.22C30.1367 40.3739 31.8665 42.12 34.0004 42.12C36.1342 42.12 37.864 40.3739 37.864 38.22V3.9Z" fill="#359144"/>
</svg>
