<svg width="34" height="34" viewBox="0 0 34 34" fill="none" xmlns="http://www.w3.org/2000/svg">
<path d="M28.9076 4.94063C25.7277 1.75313 21.4929 0 16.9924 0C7.70312 0 0.144196 7.55893 0.144196 16.8482C0.144196 19.8156 0.918304 22.7147 2.39062 25.2723L0 34L8.93259 31.6549C11.3915 32.9982 14.1616 33.704 16.9848 33.704H16.9924C26.2741 33.704 34 26.1451 34 16.8558C34 12.3554 32.0875 8.12813 28.9076 4.94063ZM16.9924 30.8656C14.4728 30.8656 12.0062 30.1902 9.85848 28.9152L9.35 28.6116L4.05268 30.0004L5.46429 24.8321L5.13036 24.3009C3.72634 22.0696 2.99018 19.4969 2.99018 16.8482C2.99018 9.12991 9.27411 2.84598 17 2.84598C20.7415 2.84598 24.2554 4.30312 26.8964 6.95179C29.5375 9.60045 31.1616 13.1143 31.154 16.8558C31.154 24.5817 24.7107 30.8656 16.9924 30.8656ZM24.6728 20.3772C24.2554 20.1647 22.1835 19.1478 21.7964 19.0112C21.4094 18.867 21.1286 18.7987 20.8478 19.2237C20.567 19.6487 19.7625 20.5897 19.5121 20.8781C19.2692 21.1589 19.0187 21.1969 18.6013 20.9844C16.1272 19.7473 14.5031 18.7759 12.8714 15.9754C12.4388 15.2317 13.304 15.2848 14.1085 13.6759C14.2451 13.3951 14.1768 13.1522 14.0705 12.9397C13.9643 12.7272 13.1219 10.6554 12.7728 9.81295C12.4313 8.9933 12.0821 9.10714 11.8241 9.09196C11.5813 9.07679 11.3004 9.07679 11.0196 9.07679C10.7388 9.07679 10.2835 9.18304 9.89643 9.60045C9.50937 10.0254 8.42411 11.0424 8.42411 13.1143C8.42411 15.1862 9.93438 17.1897 10.1393 17.4705C10.3518 17.7513 13.1067 22.0013 17.3339 23.8304C20.0054 24.9839 21.0527 25.0826 22.3884 24.8853C23.2004 24.7638 24.8777 23.8683 25.2268 22.8817C25.5759 21.8951 25.5759 21.0527 25.4696 20.8781C25.371 20.6884 25.0902 20.5821 24.6728 20.3772Z" fill="#359144"/>
</svg>
