<svg width="105" height="105" viewBox="0 0 105 105" fill="none" xmlns="http://www.w3.org/2000/svg">
<path d="M98.614 28.0875C98.0943 26.0112 97.0359 24.1088 95.5456 22.5724C94.0554 21.0361 92.1861 19.9202 90.1265 19.3375C82.6015 17.5 52.5015 17.5 52.5015 17.5C52.5015 17.5 22.4015 17.5 14.8765 19.5125C12.817 20.0952 10.9477 21.2111 9.45742 22.7474C7.96716 24.2838 6.90872 26.1862 6.38902 28.2625C5.01184 35.8993 4.33818 43.6464 4.37652 51.4062C4.32743 59.2246 5.00113 67.0307 6.38902 74.725C6.96197 76.7368 8.04412 78.5669 9.5309 80.0383C11.0177 81.5098 12.8589 82.5729 14.8765 83.125C22.4015 85.1375 52.5015 85.1375 52.5015 85.1375C52.5015 85.1375 82.6015 85.1375 90.1265 83.125C92.1861 82.5423 94.0554 81.4264 95.5456 79.8901C97.0359 78.3537 98.0943 76.4513 98.614 74.375C99.9806 66.7957 100.654 59.1077 100.627 51.4062C100.676 43.5879 100.002 35.7818 98.614 28.0875V28.0875Z" stroke="black" stroke-width="2" stroke-linecap="round" stroke-linejoin="round"/>
<path d="M42.6562 65.7141L67.8125 51.4078L42.6562 37.1016V65.7141Z" stroke="black" stroke-width="2" stroke-linecap="round" stroke-linejoin="round"/>
</svg>
