<svg width="20" height="27" viewBox="0 0 20 27" fill="none" xmlns="http://www.w3.org/2000/svg">
<path d="M11.6667 7.17188V0H1.25C0.557292 0 0 0.564258 0 1.26562V25.7344C0 26.4357 0.557292 27 1.25 27H18.75C19.4427 27 20 26.4357 20 25.7344V8.4375H12.9167C12.2292 8.4375 11.6667 7.86797 11.6667 7.17188ZM15.6484 18.3178L10.6266 23.3645C10.2802 23.7131 9.72083 23.7131 9.37448 23.3645L4.3526 18.3178C3.82396 17.7868 4.19479 16.875 4.93854 16.875H8.33333V12.6562C8.33333 12.1901 8.70625 11.8125 9.16667 11.8125H10.8333C11.2937 11.8125 11.6667 12.1901 11.6667 12.6562V16.875H15.0615C15.8052 16.875 16.176 17.7868 15.6484 18.3178ZM19.6354 5.53711L14.5365 0.369141C14.3021 0.131836 13.9844 0 13.651 0H13.3333V6.75H20V6.42832C20 6.09609 19.8698 5.77441 19.6354 5.53711Z" fill="#202321"/>
</svg>
