<svg width="18" height="18" viewBox="0 0 18 18" fill="none" xmlns="http://www.w3.org/2000/svg">
<path d="M8.99977 3.36035C8.43312 3.36035 7.87921 3.52838 7.40806 3.84319C6.93691 4.158 6.5697 4.60545 6.35285 5.12896C6.13601 5.65247 6.07927 6.22853 6.18982 6.78429C6.30036 7.34004 6.57323 7.85054 6.97391 8.25121C7.37458 8.65189 7.88508 8.92476 8.44083 9.0353C8.99659 9.14585 9.57264 9.08911 10.0962 8.87227C10.6197 8.65542 11.0671 8.28821 11.3819 7.81706C11.6967 7.34591 11.8648 6.792 11.8648 6.22535C11.8648 5.46551 11.5629 4.73678 11.0256 4.19949C10.4883 3.6622 9.75961 3.36035 8.99977 3.36035ZM8.99977 8.09035C8.6309 8.09035 8.27033 7.98097 7.96363 7.77604C7.65693 7.57111 7.41789 7.27984 7.27673 6.93906C7.13557 6.59827 7.09864 6.22328 7.1706 5.86151C7.24256 5.49973 7.42019 5.16742 7.68101 4.9066C7.94184 4.64577 8.27415 4.46815 8.63592 4.39619C8.9977 4.32423 9.37269 4.36116 9.71347 4.50232C10.0543 4.64347 10.3455 4.88252 10.5505 5.18921C10.7554 5.49591 10.8648 5.85649 10.8648 6.22535C10.8634 6.71911 10.6664 7.1922 10.3168 7.54087C9.96714 7.88955 9.49353 8.08535 8.99977 8.08535V8.09035Z" fill="#FCFBFB"/>
<path d="M14.8845 6.74467C14.5452 6.73524 14.2088 6.67973 13.8845 6.57967V6.86467C13.8845 8.89467 12.6745 10.6997 11.7895 12.0197L11.6095 12.2847C10.7495 13.5747 9.60945 15.0197 8.99445 15.7347C8.40445 15.0197 7.23945 13.5747 6.37945 12.2847L6.20945 11.9997C5.32445 10.6797 4.10945 8.87467 4.10945 6.84467C4.11248 6.00392 4.33246 5.17819 4.74809 4.44736C5.16372 3.71653 5.76094 3.10534 6.48197 2.67292C7.20299 2.24051 8.02342 2.0015 8.86387 1.97903C9.70432 1.95657 10.5363 2.15139 11.2795 2.54467C11.3192 2.20087 11.4067 1.8643 11.5395 1.54467C10.6416 1.11101 9.64808 0.913021 8.65254 0.969341C7.65701 1.02566 6.69219 1.33444 5.84894 1.86659C5.00569 2.39875 4.31176 3.13678 3.8325 4.01117C3.35324 4.88557 3.10441 5.86755 3.10945 6.86467C3.10945 9.19967 4.41945 11.1547 5.37945 12.5797L5.55445 12.8397C6.50959 14.224 7.53424 15.559 8.62445 16.8397L9.00445 17.2847L9.38445 16.8397C10.4745 15.5589 11.4992 14.2239 12.4545 12.8397L12.6295 12.5747C13.5845 11.1497 14.8945 9.19967 14.8945 6.86467C14.8895 6.82467 14.8845 6.78467 14.8845 6.74467Z" fill="#FCFBFB"/>
<path d="M15 5.5C16.3807 5.5 17.5 4.38071 17.5 3C17.5 1.61929 16.3807 0.5 15 0.5C13.6193 0.5 12.5 1.61929 12.5 3C12.5 4.38071 13.6193 5.5 15 5.5Z" fill="#FCFBFB"/>
</svg>
