<svg width="78" height="70" viewBox="0 0 78 70" fill="none" xmlns="http://www.w3.org/2000/svg">
<path d="M54.5932 0.00109855C53.7893 0.0190296 53.0102 0.282306 52.3602 0.755619C37.1911 11.5961 18.4801 13.8596 7.40743 13.8596H3.91162C2.87685 13.8596 1.88425 14.2696 1.15112 14.9997C0.417987 15.7299 0.00407387 16.7208 0 17.7554L0 34.0315C0 35.0688 0.412115 36.0636 1.14569 36.7971C1.87926 37.5306 2.87419 37.9427 3.91162 37.9427H4.09642C5.09742 37.9427 6.20622 37.8657 7.40743 37.8657H7.56143L10.164 63.1344C10.335 64.7476 11.0964 66.2406 12.3017 67.3264C13.507 68.4123 15.0713 69.0142 16.6937 69.0166H26.6113C27.5283 69.0172 28.4353 68.8251 29.2733 68.4528C30.1113 68.0805 30.8617 67.5363 31.4759 66.8554C32.0901 66.1745 32.5543 65.3721 32.8385 64.5003C33.1227 63.6285 33.2205 62.7068 33.1255 61.7948L31.0003 41.084C38.6463 43.1204 45.8758 46.482 52.3602 51.0159C53.0302 51.5089 53.8384 51.7783 54.6702 51.7858C55.6969 51.7697 56.6761 51.3505 57.3964 50.6187C58.1167 49.887 58.5204 48.9014 58.5202 47.8746V3.91228C58.5223 3.39679 58.422 2.88601 58.2252 2.40955C58.0284 1.93308 57.7389 1.50042 57.3737 1.13662C57.0084 0.772821 56.5746 0.485126 56.0973 0.290207C55.62 0.095287 55.1088 -0.00298066 54.5932 0.00109855ZM25.3331 61.302H17.6331L15.4001 38.2353C17.8333 38.4662 20.4359 38.7896 23.1001 39.2823L25.3331 61.302ZM50.8202 40.9608C34.0341 31.4138 15.6619 30.1819 7.70003 30.1819V21.5588C15.6619 21.5588 34.0341 20.2962 50.8202 10.78V40.9608Z" fill="#111111"/>
<path d="M63.1407 16.6648C63.142 17.4213 63.3661 18.1607 63.7852 18.7905C64.2042 19.4204 64.7996 19.9129 65.4969 20.2064C66.6221 20.6728 67.5836 21.4623 68.2601 22.475C68.9366 23.4877 69.2977 24.6782 69.2977 25.8961C69.2977 27.1139 68.9366 28.3044 68.2601 29.3172C67.5836 30.3299 66.6221 31.1193 65.4969 31.5858C64.7972 31.8759 64.1996 32.3676 63.78 32.9982C63.3605 33.6288 63.1379 34.37 63.1407 35.1274C63.1361 35.7529 63.2846 36.37 63.5733 36.925C63.862 37.4799 64.2821 37.9558 64.7969 38.3111C65.3117 38.6665 65.9057 38.8905 66.527 38.9636C67.1483 39.0367 67.7781 38.9567 68.3614 38.7306C70.9177 37.6938 73.1064 35.9178 74.6474 33.63C76.1885 31.3423 77.0117 28.6467 77.0117 25.8884C77.0117 23.1301 76.1885 20.4345 74.6474 18.1467C73.1064 15.8589 70.9177 14.083 68.3614 13.0462C67.7768 12.8235 67.1467 12.7466 66.5257 12.8221C65.9047 12.8977 65.3114 13.1234 64.7973 13.4798C64.2831 13.8361 63.8636 14.3124 63.575 14.8674C63.2863 15.4223 63.1373 16.0393 63.1407 16.6648Z" fill="#359144"/>
</svg>
