<svg width="107" height="107" viewBox="0 0 107 107" fill="none" xmlns="http://www.w3.org/2000/svg">
<path d="M84.7083 13.375H22.2917C17.3671 13.375 13.375 17.3671 13.375 22.2917V84.7083C13.375 89.6329 17.3671 93.625 22.2917 93.625H84.7083C89.6329 93.625 93.625 89.6329 93.625 84.7083V22.2917C93.625 17.3671 89.6329 13.375 84.7083 13.375Z" stroke="black" stroke-width="2" stroke-linecap="round" stroke-linejoin="round"/>
<path d="M37.8955 44.584C41.5889 44.584 44.583 41.5899 44.583 37.8965C44.583 34.2031 41.5889 31.209 37.8955 31.209C34.2021 31.209 31.208 34.2031 31.208 37.8965C31.208 41.5899 34.2021 44.584 37.8955 44.584Z" stroke="black" stroke-width="2" stroke-linecap="round" stroke-linejoin="round"/>
<path d="M93.6253 66.8757L71.3337 44.584L22.292 93.6257" stroke="black" stroke-width="2" stroke-linecap="round" stroke-linejoin="round"/>
</svg>
