<svg width="104" height="104" viewBox="0 0 104 104" fill="none" xmlns="http://www.w3.org/2000/svg">
<path d="M30.3327 95.3327H17.3327C15.0341 95.3327 12.8297 94.4196 11.2044 92.7943C9.57911 91.169 8.66602 88.9646 8.66602 86.666V56.3327C8.66602 54.0341 9.57911 51.8297 11.2044 50.2044C12.8297 48.5791 15.0341 47.666 17.3327 47.666H30.3327M60.666 38.9994V21.666C60.666 18.2182 59.2964 14.9116 56.8584 12.4736C54.4204 10.0357 51.1138 8.66602 47.666 8.66602L30.3327 47.666V95.3327H79.2127C81.3028 95.3563 83.331 94.6238 84.9236 93.27C86.5162 91.9163 87.5659 90.0326 87.8793 87.966L93.8593 48.966C94.0479 47.7239 93.9641 46.4556 93.6138 45.2491C93.2635 44.0426 92.6551 42.9266 91.8307 41.9786C91.0063 41.0305 89.9857 40.2731 88.8395 39.7586C87.6933 39.2442 86.4489 38.9851 85.1927 38.9994H60.666Z" stroke="#202321" stroke-width="2" stroke-linecap="round" stroke-linejoin="round"/>
</svg>
