<svg width="17" height="18" viewBox="0 0 17 18" fill="none" xmlns="http://www.w3.org/2000/svg">
<path d="M17.0001 8.76268C17.0001 10.4155 17.0001 11.5436 16.9477 12.1994C16.8692 13.6948 16.4241 14.8491 15.6124 15.6886C14.8007 16.5019 13.6224 16.9741 12.1299 17.0266C11.5015 17.0528 10.3494 17.0791 8.72603 17.0791C7.05027 17.0791 5.92438 17.0528 5.29597 17.0266C3.77731 16.9479 2.62522 16.5019 1.81352 15.6886C1.00182 14.8754 0.556701 13.6948 0.47815 12.1994C0.425782 11.5698 0.425781 10.4155 0.425781 8.76268C0.425781 7.10989 0.425782 5.95557 0.47815 5.32594C0.556701 3.83056 1.00182 2.65 1.81352 1.83673C2.62522 0.997217 3.80349 0.577462 5.29597 0.498758C5.92438 0.472524 7.05027 0.446289 8.72603 0.446289C10.3756 0.446289 11.5015 0.472524 12.1299 0.498758C13.6224 0.577462 14.8007 1.02345 15.6124 1.83673C16.4241 2.65 16.8692 3.83056 16.9477 5.32594C17.0001 5.95557 17.0001 7.10989 17.0001 8.76268ZM9.53773 1.94166C9.04024 1.94166 8.75222 1.94166 8.69985 1.94166C8.64749 1.94166 8.35947 1.94166 7.86197 1.94166C7.36448 1.94166 6.97172 1.94166 6.73607 1.94166C6.47423 1.94166 6.13385 1.9679 5.71491 1.9679C5.26978 1.99413 4.90321 2.02037 4.589 2.07284C4.2748 2.15154 4.01296 2.20401 3.80349 2.28272C3.4631 2.41389 3.14889 2.62377 2.88705 2.91235C2.59903 3.17469 2.38957 3.51575 2.25865 3.8568C2.1801 4.06667 2.12772 4.32902 2.04917 4.64384C1.99681 4.95865 1.97062 5.2997 1.94444 5.74569C1.94444 6.19168 1.91826 6.53273 1.91826 6.79508C1.91826 7.05742 1.91826 7.45094 1.91826 7.9494C1.91826 8.4741 1.91826 8.73644 1.91826 8.78891C1.91826 8.81515 1.91826 9.10373 1.91826 9.60219C1.91826 10.1006 1.91826 10.4679 1.91826 10.7565C1.91826 11.0189 1.94444 11.3599 1.94444 11.8059C1.97062 12.2257 1.99681 12.5929 2.04917 12.9078C2.10154 13.2226 2.1801 13.4587 2.25865 13.6686C2.38957 14.0358 2.59903 14.3507 2.88705 14.6392C3.14889 14.9278 3.4631 15.1115 3.82967 15.2689C4.03914 15.3476 4.30098 15.4263 4.61518 15.4788C4.9032 15.5312 5.29596 15.5837 5.74108 15.5837C6.16003 15.6099 6.5266 15.6099 6.76225 15.6099C7.02409 15.6099 7.41685 15.6099 7.88815 15.6099C8.38565 15.6099 8.67367 15.6099 8.72603 15.6099C8.75222 15.6099 9.04024 15.6099 9.56391 15.6099C10.0614 15.6099 10.428 15.6099 10.6898 15.6099C10.9517 15.6099 11.292 15.6099 11.711 15.5837C12.1561 15.5575 12.5227 15.5312 12.8369 15.4788C13.1511 15.4263 13.4129 15.3476 13.6224 15.2689C13.989 15.1115 14.3032 14.9278 14.565 14.6392C14.853 14.3507 15.0625 14.0621 15.1934 13.6686C15.2982 13.4587 15.3505 13.2226 15.4029 12.9078C15.4553 12.5929 15.4815 12.2257 15.5338 11.8059C15.5338 11.3599 15.56 10.9926 15.56 10.7565C15.56 10.4942 15.56 10.1006 15.56 9.60219C15.56 9.10373 15.56 8.81515 15.56 8.78891C15.56 8.73644 15.56 8.4741 15.56 7.9494C15.56 7.45094 15.56 7.05742 15.56 6.79508C15.56 6.53273 15.5338 6.19168 15.5338 5.74569C15.5076 5.2997 15.4553 4.95865 15.4029 4.64384C15.3505 4.32902 15.2982 4.09291 15.1934 3.8568C15.0625 3.48951 14.853 3.17469 14.565 2.91235C14.3032 2.65 13.989 2.44012 13.6224 2.28272C13.4129 2.20401 13.1511 2.15154 12.8369 2.07284C12.5489 2.02037 12.1561 1.99413 11.711 1.9679C11.292 1.94166 10.9517 1.94166 10.6898 1.94166C10.428 1.94166 10.0352 1.94166 9.53773 1.94166ZM11.711 5.74569C12.5489 6.5852 12.9678 7.58212 12.9678 8.78891C12.9678 9.96947 12.5489 10.9664 11.711 11.8059C10.8993 12.6454 9.87812 13.0389 8.69985 13.0389C7.52158 13.0389 6.50041 12.6192 5.68872 11.8059C4.85084 10.9664 4.4319 9.96947 4.4319 8.78891C4.4319 7.60835 4.85084 6.5852 5.68872 5.74569C6.50041 4.93242 7.52158 4.51266 8.69985 4.51266C9.87812 4.48643 10.8993 4.90618 11.711 5.74569ZM10.6636 10.7303C11.2135 10.1793 11.4753 9.52348 11.4753 8.76268C11.4753 7.97564 11.2135 7.34601 10.6636 6.79508C10.1138 6.27038 9.45918 6.00804 8.72603 6.00804C7.94052 6.00804 7.31211 6.29662 6.76225 6.79508C6.21239 7.34601 5.95056 8.00187 5.95056 8.76268C5.95056 9.52348 6.21239 10.1793 6.76225 10.7303C7.28593 11.255 7.94052 11.5436 8.72603 11.5436C9.48536 11.5173 10.1138 11.255 10.6636 10.7303ZM13.8581 3.62068C14.0413 3.80433 14.1461 4.04044 14.1461 4.32902C14.1461 4.59137 14.0413 4.82748 13.8581 5.03736C13.6486 5.221 13.4129 5.32594 13.1511 5.32594C12.8893 5.32594 12.6536 5.221 12.4441 5.03736C12.2608 4.85371 12.1561 4.6176 12.1561 4.32902C12.1561 4.04044 12.2608 3.83056 12.4441 3.62068C12.6536 3.43704 12.8893 3.3321 13.1511 3.3321C13.4129 3.3321 13.6486 3.43704 13.8581 3.62068Z" fill="#FCFBFB"/>
</svg>
