<svg width="18" height="14" viewBox="0 0 18 14" fill="none" xmlns="http://www.w3.org/2000/svg">
<path d="M17.1759 1.62193C16.7046 2.30403 16.1547 2.90743 15.4739 3.37965C15.4739 3.48459 15.4739 3.61577 15.4739 3.82564C15.4739 4.74386 15.343 5.66207 15.055 6.55405C14.7932 7.44603 14.3742 8.338 13.8505 9.15128C13.3269 9.99079 12.6723 10.7254 11.913 11.3812C11.1536 12.0371 10.2634 12.5355 9.18984 12.9028C8.14249 13.2964 7.01659 13.48 5.81213 13.48C3.9269 13.48 2.17259 12.9815 0.601562 11.9584C0.8634 11.9846 1.09905 11.9846 1.41326 11.9846C2.98428 11.9846 4.39821 11.5124 5.62885 10.5417C4.8957 10.5417 4.24111 10.3056 3.66506 9.85961C3.06284 9.41363 2.67008 8.8627 2.46061 8.1806C2.69626 8.23307 2.90573 8.23307 3.1152 8.23307C3.40322 8.23307 3.71743 8.1806 4.00545 8.10189C3.21994 7.94448 2.56534 7.55096 2.06785 6.92133C1.54418 6.2917 1.28234 5.55713 1.28234 4.74386V4.77009C1.77983 5.03244 2.27732 5.18985 2.82718 5.18985C2.35588 4.90126 1.9893 4.48151 1.70128 3.98305C1.43944 3.48459 1.30853 2.9599 1.30853 2.38274C1.30853 1.7531 1.46562 1.17594 1.77983 0.651249C2.61771 1.70064 3.63888 2.54014 4.86951 3.14354C6.07397 3.77317 7.38316 4.14046 8.7709 4.21916C8.71853 3.93058 8.69235 3.69447 8.69235 3.43212C8.69235 2.48767 9.03273 1.70064 9.68733 1.04477C10.3419 0.362668 11.1536 0.0478516 12.0962 0.0478516C13.0912 0.0478516 13.9029 0.415137 14.5837 1.12347C15.343 0.966065 16.0762 0.703718 16.7308 0.310198C16.4689 1.12347 15.9714 1.72687 15.2383 2.17286C15.8667 2.06792 16.5213 1.91051 17.1759 1.62193Z" fill="#FCFBFB"/>
</svg>
