<svg width="33" height="29" viewBox="0 0 33 29" fill="none" xmlns="http://www.w3.org/2000/svg">
<path d="M31.4906 7.02814C31.1307 5.68859 30.0705 4.6336 28.7243 4.27557C26.2843 3.625 16.4999 3.625 16.4999 3.625C16.4999 3.625 6.71566 3.625 4.27555 4.27557C2.92937 4.63366 1.86913 5.68859 1.50928 7.02814C0.855469 9.45615 0.855469 14.522 0.855469 14.522C0.855469 14.522 0.855469 19.5878 1.50928 22.0158C1.86913 23.3554 2.92937 24.3664 4.27555 24.7244C6.71566 25.375 16.4999 25.375 16.4999 25.375C16.4999 25.375 26.2842 25.375 28.7243 24.7244C30.0705 24.3664 31.1307 23.3554 31.4906 22.0158C32.1444 19.5878 32.1444 14.522 32.1444 14.522C32.1444 14.522 32.1444 9.45615 31.4906 7.02814ZM13.2999 19.1214V9.92259L21.4777 14.5221L13.2999 19.1214Z" fill="white"/>
</svg>
