<svg width="1376" height="425" viewBox="0 0 1376 425" fill="none" xmlns="http://www.w3.org/2000/svg">
<g opacity="0.1">
<path opacity="0.8" d="M309.501 204.084C309.501 204.084 294.69 215.51 294.69 229.173C294.69 237.33 301.318 243.198 309.501 243.198C317.683 243.198 324.312 237.33 324.312 229.173C324.295 215.527 309.501 204.084 309.501 204.084ZM447.514 198.905V197.39C447.514 193.501 444.338 190.318 440.42 190.318H438.883V188.752H436.536V190.318H422.674V159.154C422.674 155.265 419.497 152.082 415.579 152.082H371.421C367.52 152.082 364.326 155.248 364.326 159.154V182.385H285.748C281.846 182.385 278.653 185.551 278.653 189.458V220.621H264.791V219.055H262.426V220.621H260.89C256.971 220.621 253.795 223.787 253.795 227.693V229.208H251.965V231.565H253.795V260.87H259.871V231.565H261.166V229.208H259.871V227.693C259.871 227.143 260.337 226.678 260.89 226.678H262.426V228.244H264.791V226.678H278.653V260.853H422.674V196.375H436.536V197.941H438.883V196.375H440.42C440.972 196.375 441.438 196.84 441.438 197.39V198.905H440.143V201.262H441.438V260.87H447.514V201.262H449.344V198.905H447.514ZM348.359 254.796H336.655V249.96H348.359V254.796ZM348.359 246.502H336.655V240.272H348.359V246.502ZM348.359 236.796H336.655V230.567H348.359V236.796ZM348.359 227.108H336.655V220.879H348.359V227.108ZM348.359 217.403H336.655V211.174H348.359V217.403ZM348.359 207.698H336.655V201.469H348.359V207.698ZM376.514 254.796H352.346V192.125H348.359V198.01H336.655V192.125H332.667V254.796H284.729V189.44C284.729 188.89 285.195 188.425 285.748 188.425H375.495C376.048 188.425 376.514 188.89 376.514 189.44V254.796ZM416.597 254.796H382.59V189.44C382.59 185.551 379.414 182.368 375.495 182.368H370.403V159.137C370.403 158.587 370.869 158.122 371.421 158.122H415.579C416.131 158.122 416.597 158.587 416.597 159.137V254.796Z" fill="white"/>
<path opacity="0.8" d="M646.516 204.084C646.516 204.084 631.705 215.51 631.705 229.173C631.705 237.33 638.334 243.198 646.516 243.198C654.699 243.198 661.328 237.33 661.328 229.173C661.31 215.527 646.516 204.084 646.516 204.084ZM784.53 198.905V197.39C784.53 193.501 781.354 190.318 777.435 190.318H775.899V188.752H773.551V190.318H759.689V159.154C759.689 155.265 756.513 152.082 752.594 152.082H708.437C704.536 152.082 701.342 155.248 701.342 159.154V182.385H622.763C618.862 182.385 615.668 185.551 615.668 189.458V220.621H601.807V219.055H599.442V220.621H597.905C593.987 220.621 590.81 223.787 590.81 227.693V229.208H588.98V231.565H590.81V260.87H596.887V231.565H598.181V229.208H596.887V227.693C596.887 227.143 597.353 226.678 597.905 226.678H599.442V228.244H601.807V226.678H615.668V260.853H759.689V196.375H773.551V197.941H775.899V196.375H777.435C777.988 196.375 778.454 196.84 778.454 197.39V198.905H777.159V201.262H778.454V260.87H784.53V201.262H786.36V198.905H784.53ZM685.374 254.796H673.67V249.96H685.374V254.796ZM685.374 246.502H673.67V240.272H685.374V246.502ZM685.374 236.796H673.67V230.567H685.374V236.796ZM685.374 227.108H673.67V220.879H685.374V227.108ZM685.374 217.403H673.67V211.174H685.374V217.403ZM685.374 207.698H673.67V201.469H685.374V207.698ZM713.529 254.796H689.362V192.125H685.374V198.01H673.67V192.125H669.683V254.796H621.745V189.44C621.745 188.89 622.211 188.425 622.763 188.425H712.511C713.063 188.425 713.529 188.89 713.529 189.44V254.796ZM753.613 254.796H719.606V189.44C719.606 185.551 716.43 182.368 712.511 182.368H707.419V159.137C707.419 158.587 707.885 158.122 708.437 158.122H752.594C753.147 158.122 753.613 158.587 753.613 159.137V254.796Z" fill="white"/>
<path opacity="0.8" d="M513.094 112.315C513.094 112.315 523.866 113.675 529.494 108.082C532.842 104.744 532.549 99.6158 529.183 96.2775C525.817 92.9392 520.69 92.6294 517.341 95.9677C511.73 101.578 513.094 112.315 513.094 112.315ZM531.703 84.2492C533.671 82.2875 533.481 79.2933 531.531 77.3316C529.563 75.3699 526.559 75.1978 524.591 77.1595C521.294 80.4462 522.105 86.7271 522.105 86.7271C522.105 86.7271 528.406 87.5359 531.703 84.2492ZM508.692 95.9677C508.692 95.9677 516.34 90.0654 516.34 83.0274C516.34 78.8287 512.922 75.8001 508.692 75.8001C504.48 75.8001 501.062 78.8287 501.062 83.0274C501.045 90.0654 508.692 95.9677 508.692 95.9677ZM495.262 86.7443C495.262 86.7443 496.056 80.4635 492.776 77.1768C490.808 75.2151 487.805 75.3871 485.837 77.3488C483.869 79.3105 483.696 82.3047 485.664 84.2664C488.961 87.5359 495.262 86.7443 495.262 86.7443ZM488.184 96.2603C484.818 99.5986 484.525 104.727 487.874 108.065C493.501 113.675 504.273 112.298 504.273 112.298C504.273 112.298 505.637 101.56 500.026 95.9505C496.66 92.6122 491.533 92.922 488.184 96.2603ZM526.455 124.55H529.735V117.529H487.632V124.567H490.912L471.509 260.957H545.858L526.455 124.55ZM537.641 253.282L512.49 240.221L534.172 228.95L537.641 253.282ZM524.626 182.764H492.759L508.692 166.692L524.626 182.764ZM497.765 150.672H519.585L508.675 161.685L497.765 150.672ZM523.573 189.785L508.692 201.263L493.812 189.785H523.573ZM529.649 221.878H487.718L508.675 205.72L529.649 221.878ZM526.663 228.899L508.692 238.242L490.722 228.899H526.663ZM532.894 219.933L511.558 203.483L528.665 190.284L532.894 219.933ZM527.284 180.441L511.161 164.18L523.227 151.997L527.284 180.441ZM498.041 124.55H519.343L522.053 143.634H495.331L498.041 124.55ZM494.14 151.997L506.206 164.18L490.083 180.441L494.14 151.997ZM488.685 190.284L505.809 203.483L484.473 219.933L488.685 190.284ZM483.178 228.95L504.86 240.221L479.708 253.282L483.178 228.95ZM486.165 253.902L508.692 242.2L531.22 253.902H486.165Z" fill="white"/>
<path opacity="0.8" d="M234.547 254.212V249.927H225.916V242.992H234.547V233.029H221.583V182.438L226.9 178.17L188.646 108.478L159.403 90.668L142.779 103.729L155.916 133.722L65.7714 206.408C64.7357 206.184 63.6482 206.047 62.5434 206.047C54.3782 206.047 47.7494 212.655 47.7494 220.794C47.7494 224.253 48.9405 227.419 50.9429 229.931V243.199H46.3339V248.567H37.1502V254.212H26.6719V264.381H244.387V254.212H234.547ZM126.363 180.08L133.095 174.66L139.431 194.483L125.223 188.873L126.363 180.08ZM124.067 197.701L142.814 205.1L142.952 205.548L121.115 220.157L124.067 197.701ZM62.5606 216.165C65.1155 216.165 67.2042 218.23 67.2042 220.794C67.2042 223.358 65.1327 225.423 62.5606 225.423C59.9885 225.423 57.917 223.358 57.917 220.794C57.917 218.247 59.9885 216.165 62.5606 216.165ZM68.2918 243.199H56.8295V234.388C58.5902 235.128 60.5236 235.541 62.5606 235.541C64.5976 235.541 66.531 235.128 68.2918 234.388V243.199ZM101.021 254.212H77.3546V243.199H74.161V229.931C76.1635 227.419 77.3546 224.253 77.3546 220.794C77.3546 220.398 77.3373 220.02 77.3028 219.641L108.876 194.173L101.021 254.212ZM116.661 254.212L118.767 238.157L146.008 254.212H116.661ZM121.944 230.017L145.697 214.134L157.453 250.942L121.944 230.017ZM216.49 233.029H203.526V242.992H212.157V249.927H203.526V254.212H174.853L146.111 164.163L169.174 145.561L216.49 186.189V233.029Z" fill="white"/>
<path opacity="0.8" d="M1033.2 248.912V264.382H1364.55V248.912H1348.6V240.325H1334.62V232.151H1327.61V211.949C1330.65 208.129 1332.46 203.294 1332.46 198.045C1332.46 185.656 1322.38 175.606 1309.93 175.606C1308.24 175.606 1306.6 175.796 1305.01 176.157L1167.83 65.5276L1187.83 19.8751L1162.51 0L1118.01 27.1196L1059.78 133.189L1067.86 139.676V216.682H1048.13V231.842H1061.28V242.39H1048.13V248.912H1033.2ZM1214.54 149.468L1192.91 158.003L1202.54 127.82L1212.78 136.063L1214.54 149.468ZM1220.77 197.082L1187.52 174.849L1187.75 174.161L1216.3 162.89L1220.77 197.082ZM1316.97 198.045C1316.97 201.934 1313.82 205.083 1309.91 205.083C1306.01 205.083 1302.85 201.934 1302.85 198.045C1302.85 194.156 1306.01 191.007 1309.91 191.007C1313.82 191.007 1316.97 194.156 1316.97 198.045ZM1301.2 218.746C1303.89 219.865 1306.82 220.502 1309.91 220.502C1313 220.502 1315.96 219.882 1318.63 218.746V232.151H1301.2V218.746ZM1239.41 157.538L1287.47 196.29C1287.42 196.875 1287.4 197.443 1287.4 198.045C1287.4 203.294 1289.22 208.129 1292.25 211.949V232.151H1287.4V248.912H1251.38L1239.41 157.538ZM1182.91 248.912L1224.36 224.494L1227.55 248.912H1182.91ZM1165.48 243.922L1183.36 187.893L1219.53 212.07L1165.48 243.922ZM1075.61 145.372L1147.65 83.5442L1182.74 111.851L1138.98 248.912H1095.34V242.39H1082.2V231.842H1095.34V216.682H1075.61V145.372Z" fill="white"/>
<path opacity="0.8" d="M878.938 266.585C883.116 269.734 889.727 273.313 898.048 273.313C899.291 273.313 900.482 273.21 901.621 273.038V237.435H955.808V273.296C955.877 273.296 955.964 273.296 956.033 273.296C967.115 273.296 975.159 266.912 978.491 263.728V237.435H997.653V203.019H984.757C995.408 197.289 1007.39 188.874 1016.78 176.915C1038.32 149.485 1038.82 113.125 1038.82 111.594C1038.82 110.32 1038.25 109.133 1037.25 108.341C1036.25 107.55 1034.96 107.275 1033.71 107.567C1032.23 107.928 997.048 116.756 975.487 144.203C964.146 158.64 958.639 175.573 955.964 188.582L943.949 121.351H919.781L914.482 151.069L862.073 113.573L849.972 124.379L856.894 132.432V174.884H841.979V185.192H847.02V194.484H841.979V203.019H832.83V237.435H878.956V266.585H878.938ZM983.014 194.518L973.761 171.821L1005.63 177.225C998.636 184.572 990.575 190.251 983.014 194.518ZM1030.23 117.238C1029.99 119.905 1029.55 123.398 1028.85 127.408L1024.12 119.509C1026.43 118.58 1028.5 117.823 1030.23 117.238ZM1016.5 122.848L1023.2 134.033L999.189 133.035C1005.09 128.802 1011.1 125.446 1016.5 122.848ZM1025.22 142.361C1022.72 150.449 1019.04 159.139 1013.65 167.192L996.082 141.157L1025.22 142.361ZM981.995 149.296C983.722 147.111 985.551 145.046 987.45 143.101L1004.75 168.741L973.192 163.389C975.591 158.537 978.491 153.77 981.995 149.296ZM967.34 177.896L975.677 198.339C971.465 200.352 967.65 201.901 964.543 203.019H962.161C962.748 197.168 964.129 187.979 967.34 177.896ZM873.742 194.484H857.101V185.192H873.742V194.484ZM861.175 174.884V137.405L907.335 191.008L905.195 203.036H888.864V194.501H883.824V185.209H888.864V174.901H861.175V174.884Z" fill="white"/>
<path opacity="0.8" d="M1380 259.805H-1V425H1380V259.805Z" fill="white"/>
</g>
</svg>
