<?xml version="1.0" encoding="utf-8"?>
<!-- Generator: Adobe Illustrator 13.0.0, SVG Export Plug-In . SVG Version: 6.00 Build 14948)  -->
<!DOCTYPE svg PUBLIC "-//W3C//DTD SVG 1.1//EN" "http://www.w3.org/Graphics/SVG/1.1/DTD/svg11.dtd">
<svg version="1.1" id="Layer_1" xmlns="http://www.w3.org/2000/svg" xmlns:xlink="http://www.w3.org/1999/xlink" x="0px" y="0px"
	 width="1373px" height="425px" viewBox="290 572 1373 425" enable-background="new 290 572 1373 425" xml:space="preserve">
<g opacity="0.1">
	<path opacity="0.8" fill="#FFFFFF" enable-background="new    " d="M600.501,870.085c0,0-14.812,11.426-14.812,25.089
		c0,8.157,6.628,14.025,14.812,14.025c8.182,0,14.811-5.868,14.811-14.025C615.295,881.527,600.501,870.085,600.501,870.085z
		 M738.514,864.906v-1.516c0-3.889-3.176-7.072-7.094-7.072h-1.537v-1.565h-2.348v1.565h-13.861v-31.163
		c0-3.89-3.178-7.072-7.096-7.072h-44.157c-3.901,0-7.096,3.166-7.096,7.072v23.23h-78.577c-3.902,0-7.096,3.166-7.096,7.073v31.163
		h-13.861v-1.565h-2.365v1.565h-1.536c-3.919,0-7.095,3.166-7.095,7.071v1.516h-1.83v2.357h1.83v29.305h6.076v-29.305h1.295v-2.357
		h-1.295v-1.516c0-0.549,0.466-1.014,1.019-1.014h1.536v1.565h2.365v-1.565h13.861v34.174h144.021v-64.478h13.861v1.565h2.348
		v-1.565h1.537c0.552,0,1.018,0.465,1.018,1.015v1.516h-1.295v2.357h1.295v59.607h6.076v-59.607h1.83v-2.357H738.514z
		 M639.359,920.797h-11.704v-4.836h11.704V920.797z M639.359,912.503h-11.704v-6.229h11.704V912.503z M639.359,902.797h-11.704
		v-6.229h11.704V902.797z M639.359,893.109h-11.704v-6.229h11.704V893.109z M639.359,883.404h-11.704v-6.229h11.704V883.404z
		 M639.359,873.699h-11.704v-6.229h11.704V873.699z M667.514,920.797h-24.168v-62.671h-3.987v5.885h-11.704v-5.885h-3.988v62.671
		h-47.938v-65.355c0-0.551,0.466-1.016,1.02-1.016h89.746c0.554,0,1.02,0.465,1.02,1.016V920.797z M707.597,920.797H673.59v-65.355
		c0-3.89-3.177-7.072-7.096-7.072h-5.092v-23.23c0-0.551,0.466-1.016,1.019-1.016h44.157c0.553,0,1.019,0.465,1.019,1.016V920.797z"
		/>
	<path opacity="0.8" fill="#FFFFFF" enable-background="new    " d="M937.516,870.085c0,0-14.812,11.426-14.812,25.089
		c0,8.157,6.63,14.025,14.812,14.025c8.183,0,14.812-5.868,14.812-14.025C952.31,881.527,937.516,870.085,937.516,870.085z
		 M1075.53,864.906v-1.516c0-3.889-3.176-7.072-7.095-7.072h-1.536v-1.565h-2.348v1.565h-13.862v-31.163
		c0-3.89-3.176-7.072-7.095-7.072h-44.157c-3.901,0-7.095,3.166-7.095,7.072v23.23h-78.579c-3.901,0-7.095,3.166-7.095,7.073v31.163
		h-13.861v-1.565h-2.365v1.565h-1.537c-3.918,0-7.095,3.166-7.095,7.071v1.516h-1.83v2.357h1.83v29.305h6.077v-29.305h1.294v-2.357
		h-1.294v-1.516c0-0.549,0.466-1.014,1.018-1.014h1.537v1.565h2.365v-1.565h13.861v34.174h144.021v-64.478h13.862v1.565h2.348
		v-1.565h1.536c0.553,0,1.019,0.465,1.019,1.015v1.516h-1.295v2.357h1.295v59.607h6.076v-59.607h1.83v-2.357H1075.53z
		 M976.373,920.797H964.67v-4.836h11.703V920.797z M976.373,912.503H964.67v-6.229h11.703V912.503z M976.373,902.797H964.67v-6.229
		h11.703V902.797z M976.373,893.109H964.67v-6.229h11.703V893.109z M976.373,883.404H964.67v-6.229h11.703V883.404z
		 M976.373,873.699H964.67v-6.229h11.703V873.699z M1004.529,920.797h-24.167v-62.671h-3.988v5.885H964.67v-5.885h-3.987v62.671
		h-47.938v-65.355c0-0.551,0.467-1.016,1.019-1.016h89.748c0.552,0,1.018,0.465,1.018,1.016V920.797z M1044.613,920.797h-34.007
		v-65.355c0-3.89-3.176-7.072-7.095-7.072h-5.092v-23.23c0-0.551,0.466-1.016,1.018-1.016h44.157c0.553,0,1.019,0.465,1.019,1.016
		V920.797z"/>
	<path opacity="0.8" fill="#FFFFFF" enable-background="new    " d="M804.094,778.314c0,0,10.771,1.36,16.399-4.232
		c3.349-3.338,3.056-8.467-0.311-11.805s-8.493-3.648-11.842-0.31C802.73,767.578,804.094,778.314,804.094,778.314z
		 M822.702,750.249c1.969-1.962,1.778-4.956-0.172-6.917c-1.968-1.962-4.972-2.135-6.939-0.172
		c-3.297,3.286-2.486,9.566-2.486,9.566S819.406,753.536,822.702,750.249z M799.692,761.968c0,0,7.648-5.902,7.648-12.94
		c0-4.199-3.418-7.227-7.648-7.227c-4.212,0-7.63,3.027-7.63,7.227C792.045,756.065,799.692,761.968,799.692,761.968z
		 M786.262,752.744c0,0,0.794-6.281-2.486-9.567c-1.968-1.962-4.971-1.79-6.938,0.172c-1.969,1.962-2.142,4.956-0.174,6.918
		C779.961,753.536,786.262,752.744,786.262,752.744z M779.184,762.26c-3.366,3.339-3.659,8.467-0.311,11.805
		c5.627,5.61,16.399,4.233,16.399,4.233s1.364-10.737-4.247-16.347C787.659,758.612,782.532,758.922,779.184,762.26z
		 M817.454,790.55h3.28v-7.021h-42.103v7.037h3.279l-19.402,136.391h74.349L817.454,790.55z M828.641,919.282l-25.151-13.062
		l21.683-11.271L828.641,919.282z M815.625,848.764h-31.866l15.933-16.072L815.625,848.764z M788.765,816.672h21.82l-10.91,11.014
		L788.765,816.672z M814.573,855.785l-14.881,11.479l-14.88-11.479H814.573z M820.649,887.878h-41.931l20.957-16.158
		L820.649,887.878z M817.662,894.898l-17.971,9.344l-17.97-9.344H817.662z M823.894,885.934l-21.336-16.451l17.106-13.198
		L823.894,885.934z M818.283,846.441L802.16,830.18l12.066-12.183L818.283,846.441z M789.041,790.55h21.302l2.71,19.084H786.33
		L789.041,790.55z M785.14,817.997l12.065,12.183l-16.123,16.262L785.14,817.997z M779.685,856.284l17.124,13.198l-21.336,16.451
		L779.685,856.284z M774.178,894.95l21.682,11.271l-25.152,13.062L774.178,894.95z M777.164,919.902l22.527-11.702l22.528,11.702
		H777.164z"/>
	<path opacity="0.8" fill="#FFFFFF" enable-background="new    " d="M525.547,920.212v-4.285h-8.631v-6.935h8.631v-9.963h-12.964
		v-50.592l5.316-4.268l-38.254-69.691l-29.243-17.811l-16.624,13.061l13.138,29.994l-90.145,72.686
		c-1.036-0.225-2.124-0.361-3.229-0.361c-8.165,0-14.794,6.608-14.794,14.747c0,3.459,1.191,6.625,3.193,9.138v13.268h-4.608v5.367
		h-9.184v5.646h-10.479v10.169h217.715v-10.169H525.547z M417.363,846.08l6.732-5.42l6.336,19.822l-14.208-5.609L417.363,846.08z
		 M415.067,863.701l18.747,7.398l0.139,0.448l-21.838,14.609L415.067,863.701z M353.561,882.165c2.555,0,4.644,2.065,4.644,4.629
		s-2.071,4.629-4.644,4.629s-4.644-2.065-4.644-4.629C348.917,884.247,350.989,882.165,353.561,882.165z M359.292,909.199h-11.463
		v-8.811c1.761,0.739,3.694,1.152,5.731,1.152s3.97-0.413,5.731-1.152V909.199z M392.021,920.212h-23.666v-11.013h-3.193v-13.268
		c2.002-2.513,3.193-5.679,3.193-9.138c0-0.396-0.018-0.774-0.052-1.153l31.573-25.468L392.021,920.212z M407.661,920.212
		l2.105-16.055l27.241,16.055H407.661z M412.944,896.018l23.753-15.884l11.757,36.808L412.944,896.018z M507.49,899.029h-12.964
		v9.963h8.631v6.935h-8.631v4.285h-28.673l-28.742-90.049l23.063-18.603l47.315,40.629V899.029z"/>
	<path opacity="0.8" fill="#FFFFFF" enable-background="new    " d="M1324.199,914.912v15.47h331.351v-15.47h-15.95v-8.587h-13.98
		v-8.175h-7.01v-20.201c3.04-3.82,4.85-8.655,4.85-13.904c0-12.389-10.079-22.439-22.529-22.439c-1.69,0-3.33,0.19-4.92,0.552
		l-137.181-110.63l20-45.652L1453.51,666l-44.5,27.12l-58.23,106.07l8.08,6.486v77.006h-19.729v15.16h13.149v10.549h-13.149v6.521
		H1324.199z M1505.539,815.468l-21.63,8.535l9.63-30.183l10.24,8.242L1505.539,815.468z M1511.77,863.082l-33.25-22.232l0.23-0.688
		l28.55-11.271L1511.77,863.082z M1607.97,864.045c0,3.889-3.15,7.038-7.061,7.038c-3.899,0-7.06-3.149-7.06-7.038
		s3.16-7.038,7.06-7.038C1604.82,857.007,1607.97,860.156,1607.97,864.045z M1592.199,884.746c2.69,1.119,5.62,1.756,8.71,1.756
		c3.091,0,6.05-0.62,8.721-1.756v13.404h-17.431V884.746z M1530.409,823.538l48.061,38.752c-0.05,0.585-0.07,1.153-0.07,1.755
		c0,5.249,1.82,10.084,4.851,13.904v20.201h-4.851v16.762h-36.02L1530.409,823.538z M1473.909,914.912l41.45-24.418l3.19,24.418
		H1473.909z M1456.48,909.922l17.88-56.029l36.17,24.178L1456.48,909.922z M1366.61,811.372l72.04-61.828l35.09,28.308
		l-43.76,137.061h-43.64v-6.521h-13.141v-10.549h13.141v-15.16h-19.73V811.372z"/>
	<path opacity="0.8" fill="#FFFFFF" enable-background="new    " d="M1169.938,932.585c4.178,3.149,10.789,6.728,19.11,6.728
		c1.243,0,2.434-0.103,3.572-0.274v-35.603h54.188v35.86c0.069,0,0.156,0,0.225,0c11.082,0,19.126-6.384,22.458-9.567v-26.293
		h19.162V869.02h-12.896c10.65-5.73,22.633-14.146,32.022-26.104c21.54-27.431,22.04-63.79,22.04-65.321
		c0-1.273-0.569-2.461-1.569-3.253c-1-0.791-2.291-1.065-3.541-0.774c-1.479,0.361-36.661,9.189-58.223,36.637
		c-11.341,14.438-16.848,31.37-19.522,44.379l-12.016-67.23h-24.168l-5.299,29.717l-52.409-37.495l-12.101,10.806l6.922,8.053
		v42.452h-14.915v10.308h5.041v9.293h-5.041v8.535h-9.149v34.416h46.126v29.149H1169.938z M1274.014,860.518l-9.253-22.697
		l31.869,5.404C1289.636,850.572,1281.574,856.251,1274.014,860.518z M1321.23,783.238c-0.24,2.667-0.68,6.16-1.38,10.17
		l-4.73-7.899C1317.43,784.58,1319.5,783.823,1321.23,783.238z M1307.5,788.848l6.699,11.186l-24.01-0.998
		C1296.09,794.802,1302.1,791.445,1307.5,788.848z M1316.22,808.361c-2.5,8.088-6.181,16.777-11.57,24.83l-17.567-26.034
		L1316.22,808.361z M1272.994,815.296c1.728-2.185,3.557-4.25,5.455-6.194l17.301,25.64l-31.559-5.353
		C1266.591,824.537,1269.49,819.77,1272.994,815.296z M1258.34,843.896l8.337,20.442c-4.212,2.013-8.027,3.562-11.134,4.681h-2.383
		C1253.748,863.168,1255.129,853.979,1258.34,843.896z M1164.741,860.484h-16.641v-9.293h16.641V860.484z M1152.175,840.884v-37.479
		l46.16,53.603l-2.141,12.028h-16.331v-8.535h-5.04v-9.292h5.04V840.9h-27.688V840.884z"/>
	<path opacity="0.8" fill="#FFFFFF" enable-background="new    " d="M1671,925.805H290V1000h1381V925.805z"/>
</g>
</svg>
