<svg id="Layer_1" data-name="Layer 1" xmlns="http://www.w3.org/2000/svg" viewBox="0 0 1084.77 353.39"><defs><style>.cls-1{fill:#6fcfeb;}.cls-2{fill:#76777a;}.cls-3{fill:#212322;}.cls-4{fill:#ffc600;}.cls-5{fill:#2a7de1;}.cls-6{fill:#225d38;}.cls-7{fill:#89dc65;}.cls-8{fill:#633510;}.cls-9{fill:#3dae2b;}.cls-10{fill:#ffc629;}.cls-11{fill:#ffd600;}.cls-12{fill:#da7d27;}.cls-13{fill:#f5a800;}.cls-14{fill:#00269a;}.cls-15{fill:#ff671d;}.cls-16{fill:#008556;}.cls-17{fill:#1e5128;}.cls-18{fill:#217139;}.cls-19{fill:#359144;}.cls-20,.cls-23{fill:#4cb853;}.cls-21{fill:#a2ce58;}.cls-22{fill:#c9e19a;}.cls-23{font-size:55px;font-family:Neuropol-Regular, Neuropol;}.cls-24{letter-spacing:-0.05em;}.cls-25{letter-spacing:-0.02em;}.cls-26{letter-spacing:0em;}.cls-27{letter-spacing:-0.02em;}.cls-28{letter-spacing:0em;}</style></defs><title>Logo Cluster 2020 horizontal</title><path class="cls-1" d="M308.29,245.05l1.31.26c.13.36.27.71.43,1.05l-.74,1.11a.93.93,0,0,0,.11,1.19L312,251.3a.94.94,0,0,0,1.19.12l1.11-.75a10.11,10.11,0,0,0,1,.42l.25,1.32a1,1,0,0,0,.93.76h3.74a.93.93,0,0,0,.92-.76l.26-1.31c.35-.13.7-.27,1-.43l1.11.75a.94.94,0,0,0,1.19-.12l2.65-2.64a1,1,0,0,0,.11-1.19l-.75-1.11c.16-.34.3-.68.43-1l1.31-.26a.93.93,0,0,0,.76-.92v-3.74a.94.94,0,0,0-.76-.92l-1.32-.26a8.45,8.45,0,0,0-.43-1l.75-1.11a1,1,0,0,0-.11-1.19l-2.65-2.65a.94.94,0,0,0-1.19-.11l-1.11.75c-.33-.16-.68-.3-1-.43l-.25-1.31a.93.93,0,0,0-.92-.76h-3.74a.93.93,0,0,0-.92.76l-.26,1.32a8,8,0,0,0-1.05.43l-1.11-.75a.94.94,0,0,0-1.19.11l-2.64,2.65a.93.93,0,0,0-.11,1.19l.74,1.11a9.1,9.1,0,0,0-.42,1l-1.32.26a.94.94,0,0,0-.76.92v3.74a.92.92,0,0,0,.76.92Zm10.14-7.71a4.93,4.93,0,1,1-4.93,4.93,4.93,4.93,0,0,1,4.93-4.93Zm0,0"/><path class="cls-1" d="M303.33,255.72a3.67,3.67,0,0,1,2.07.57,6,6,0,0,0,5.92,0,4.06,4.06,0,0,1,4.15,0,5.46,5.46,0,0,0,3,.78,5.52,5.52,0,0,0,3-.78,4,4,0,0,1,4.14,0,5.52,5.52,0,0,0,3,.78,5.46,5.46,0,0,0,3-.78,3.68,3.68,0,0,1,2.08-.57.94.94,0,0,0,.94-.93,1,1,0,0,0-.94-.95,5.48,5.48,0,0,0-3,.79,4.12,4.12,0,0,1-4.15,0,5.94,5.94,0,0,0-5.92,0,4.12,4.12,0,0,1-4.15,0,5.45,5.45,0,0,0-3-.79,5.51,5.51,0,0,0-3,.79,4.11,4.11,0,0,1-4.14,0,5.51,5.51,0,0,0-3-.79,1,1,0,0,0-.94.95.94.94,0,0,0,.94.93Zm0,0"/><path class="cls-1" d="M333.53,259.24a5.58,5.58,0,0,0-3,.78,4.12,4.12,0,0,1-4.15,0,6,6,0,0,0-5.92,0,4.12,4.12,0,0,1-4.15,0,5.55,5.55,0,0,0-3-.78,5.61,5.61,0,0,0-3,.78,4.11,4.11,0,0,1-4.14,0,5.61,5.61,0,0,0-3-.78.94.94,0,0,0,0,1.88,3.75,3.75,0,0,1,2.07.56,5.94,5.94,0,0,0,5.92,0,4.12,4.12,0,0,1,4.15,0,5.45,5.45,0,0,0,3,.79,5.51,5.51,0,0,0,3-.79,4.11,4.11,0,0,1,4.14,0,5.51,5.51,0,0,0,3,.79,5.45,5.45,0,0,0,3-.79,3.76,3.76,0,0,1,2.08-.56.94.94,0,0,0,0-1.88Zm0,0"/><path class="cls-2" d="M64.79,177.23v-6.31H62.3l-5.87-4.8a5.11,5.11,0,0,0-5.24-.75l-1.17.5a3.17,3.17,0,0,1-3-.25l-.89-.57a5.1,5.1,0,0,0-6.31.62l-5.43,5.25H32v6.31h2.36L35.76,185H32.93v1.93h3.19l.41,2.19h2.34a3,3,0,0,0-.22,1.12,3,3,0,0,0,6.07,0,3,3,0,0,0-.21-1.12h7.74a3,3,0,0,0-.22,1.12,3,3,0,0,0,6.08,0,3,3,0,0,0-.22-1.12h2.34l.41-2.19h3.19V185H61l1.43-7.76Zm-23.6-10.17a3.17,3.17,0,0,1,3.93-.39l.89.57a5.09,5.09,0,0,0,4.77.4l1.17-.5a3.19,3.19,0,0,1,3.26.47l4,3.31H37.19Zm-7.3,5.78h29v2.47h-29Zm8.91,17.39a1.11,1.11,0,1,1-1.11-1.12,1.11,1.11,0,0,1,1.11,1.12Zm13.38,0a1.11,1.11,0,1,1-1.11-1.12,1.11,1.11,0,0,1,1.11,1.12Zm2.45-3H38.13l-1.85-10h24.2Zm0,0"/><path class="cls-3" d="M63.31,97.29a6.77,6.77,0,0,1,3,.72.33.33,0,0,0,.16,0,.31.31,0,0,0,.26-.48c-.21-.4-2.53-4.66-6.22-6.13a5.15,5.15,0,0,0-1.83-.37A4.37,4.37,0,0,0,55,93.54a3.16,3.16,0,0,0,.11,3.16,3.85,3.85,0,0,0,3.28,1.79,4.42,4.42,0,0,0,2-.49,6.59,6.59,0,0,1,3-.71Zm0,0"/><path class="cls-3" d="M74,94a2.35,2.35,0,0,0-2-1.33,2.77,2.77,0,0,0-1,.2,7.78,7.78,0,0,0-3.38,3.33.17.17,0,0,0,0,.2.17.17,0,0,0,.2,0,3.56,3.56,0,0,1,3.26,0,2.32,2.32,0,0,0,1.08.26,2.09,2.09,0,0,0,1.78-1A1.71,1.71,0,0,0,74,94Zm0,0"/><path class="cls-3" d="M67,95.09h0a.17.17,0,0,0,.12-.16A3.59,3.59,0,0,1,68.7,92a2.19,2.19,0,0,0,.89-2.45,1.74,1.74,0,0,0-1.67-1.26h0a2.27,2.27,0,0,0-2.38,2.15A7.78,7.78,0,0,0,66.88,95a.17.17,0,0,0,.14.07Zm0,0"/><path class="cls-3" d="M72.82,121.94H72L68.76,99.68A.83.83,0,0,0,68,99H65a.81.81,0,0,0-.81.7L61,121.94h-.85a.55.55,0,0,0-.54.55v1.72a.55.55,0,0,0,.54.55h12.7a.55.55,0,0,0,.55-.55v-1.72a.55.55,0,0,0-.55-.55Zm-4.13-11.27.8,5.55-4.32-3.31Zm-.37-2.54-2.62-2,2.08-1.77Zm-2.61-7.52h1.53l.27,1.88-2.36,2Zm-1,6.87,2.73,2-3.33,2.11Zm-.93,6.43,4.48,3.44-5.56,4Zm1.31,7.76,4.69-3.4.49,3.4Zm0,0"/><path class="cls-4" d="M180.76,32.71h-1.94a1,1,0,0,0,0,1.94h1.94a1,1,0,0,0,0-1.94Zm0,0"/><path class="cls-4" d="M206.64,32.71H204.7a1,1,0,0,0,0,1.94h1.94a1,1,0,1,0,0-1.94Zm0,0"/><path class="cls-4" d="M192.73,44.68a1,1,0,0,0-1,1v1.94a1,1,0,0,0,1.94,0V45.65a1,1,0,0,0-1-1Zm0,0"/><path class="cls-4" d="M192.73,18.8a1,1,0,0,0-1,1v1.94a1,1,0,1,0,1.94,0V19.77a1,1,0,0,0-1-1Zm0,0"/><path class="cls-4" d="M200.52,45.24l-1-1.68a1,1,0,0,0-1.32-.36,1,1,0,0,0-.36,1.33l1,1.68a1,1,0,0,0,1.33.35,1,1,0,0,0,.35-1.32Zm0,0"/><path class="cls-4" d="M187.59,22.83l-1-1.68a1,1,0,0,0-1.32-.36,1,1,0,0,0-.36,1.33l1,1.68a1,1,0,0,0,1.69-1Zm0,0"/><path class="cls-4" d="M205.26,39.79l-1.68-1a1,1,0,1,0-1,1.68l1.68,1a1,1,0,0,0,1.32-.35,1,1,0,0,0-.35-1.33Zm0,0"/><path class="cls-4" d="M182.85,26.85l-1.68-1a1,1,0,0,0-1.33.36,1,1,0,0,0,.36,1.32l1.68,1a1,1,0,1,0,1-1.68Zm0,0"/><path class="cls-4" d="M205.61,26.24a1,1,0,0,0-1.32-.36l-1.68,1a1,1,0,1,0,1,1.68l1.68-1a1,1,0,0,0,.35-1.32Zm0,0"/><path class="cls-4" d="M183.2,39.18a1,1,0,0,0-1.32-.36l-1.68,1a1,1,0,1,0,1,1.68l1.68-1a1,1,0,0,0,.35-1.32Zm0,0"/><path class="cls-4" d="M200.17,20.79a1,1,0,0,0-1.33.36l-1,1.68a1,1,0,0,0,1.68,1l1-1.68a1,1,0,0,0-.35-1.33Zm0,0"/><path class="cls-4" d="M187.23,43.2a1,1,0,0,0-1.33.36l-1,1.68a1,1,0,0,0,.36,1.32,1,1,0,0,0,1.32-.35l1-1.68a1,1,0,0,0-.36-1.33Zm0,0"/><path class="cls-4" d="M192.73,24.62a9.06,9.06,0,1,0,9.06,9.06,9.06,9.06,0,0,0-9.06-9.06Zm0,16.17a7.12,7.12,0,1,1,7.12-7.11,7.12,7.12,0,0,1-7.12,7.11Zm0,0"/><path class="cls-4" d="M192.73,28.5a5.19,5.19,0,0,0-5.18,5.18,1,1,0,1,0,1.94,0,3.24,3.24,0,0,1,3.24-3.24,1,1,0,0,0,0-1.94Zm0,0"/><path class="cls-5" d="M267,53.84a1.63,1.63,0,1,0-1.63,1.63A1.64,1.64,0,0,0,267,53.84Zm0,0"/><path class="cls-5" d="M263.75,53.84a1.63,1.63,0,1,0,3.25,0,1.55,1.55,0,0,0-1.53-1.54h-.22a1.54,1.54,0,0,0-1.5,1.54Zm0,0"/><path class="cls-5" d="M262.82,52.94c-1.59.52-7.39,2.44-7.75,2.6-.55.26-5.63,4-7.18,5.17a.55.55,0,0,0,.35,1h.1c1.91-.38,8.19-1.62,8.75-1.88s4.28-3.19,6-4.53a2.64,2.64,0,0,1-.42-1.45,2.52,2.52,0,0,1,.17-.9Zm0,0"/><path class="cls-5" d="M282.86,60.71c-1.54-1.15-6.64-4.91-7.19-5.17-.34-.16-6.18-2.08-7.74-2.6a2.75,2.75,0,0,1,.16.9,2.69,2.69,0,0,1-.42,1.45c1.7,1.33,5.49,4.29,6,4.53s6.83,1.5,8.74,1.87h.12a.55.55,0,0,0,.55-.55.53.53,0,0,0-.22-.44Zm0,0"/><path class="cls-5" d="M266.58,51.47c.52-2.15,1.77-7.33,1.78-7.91s-1.45-6.83-1.87-8.72a.57.57,0,0,0-1.11,0c-.29,1.34-1.76,8.09-1.76,8.71,0,.36.55,5.59.78,7.81a3.32,3.32,0,0,1,1-.18,2.93,2.93,0,0,1,1.2.28Zm0,0"/><path class="cls-5" d="M263.72,56l-.55,14h4.42L267,56a2.68,2.68,0,0,1-3.34,0Zm0,0"/><path class="cls-6" d="M132.44,299.42a.74.74,0,0,0-.68-.47h0a10.16,10.16,0,0,0-4.53,1.1c-.53-7.43-2.91-15.29-7-15.29s-6.41,7.86-7,15.29a10.12,10.12,0,0,0-4.52-1.1h0a.74.74,0,0,0-.68.47.71.71,0,0,0,.19.8s2,1.9,3.62,7.66a34.85,34.85,0,0,1,.82,3.88c.46,2.68.86,5,3,6.22v2a2.54,2.54,0,0,0,2.54,2.54h4.09a2.54,2.54,0,0,0,2.54-2.54v-2c2.09-1.23,2.48-3.54,3-6.22a34.85,34.85,0,0,1,.82-3.88c1.6-5.7,3.61-7.64,3.62-7.66a.71.71,0,0,0,.19-.8Zm-16.81-5.25h1.91c-.08.76-.14,1.51-.2,2.25h-2.13q.18-1.17.42-2.25Zm1.1-3.71h1.33c-.13.72-.24,1.48-.34,2.25H116a22,22,0,0,1,.74-2.25Zm4.28,0c.13.72.25,1.47.35,2.25h-2.17c.1-.78.21-1.53.35-2.25ZM119.86,289a13.1,13.1,0,0,1,.41-1.4,11.09,11.09,0,0,1,.42,1.4Zm3.89,1.46h.07a22,22,0,0,1,.73,2.25h-1.72c-.1-.77-.21-1.53-.34-2.25Zm-1.69,13.74h-3.57c0-.41,0-1.35.05-2.61H122c0,1.26,0,2.2,0,2.61Zm-3.47-4.07c0-.7.07-1.46.12-2.25h3.13c0,.79.09,1.55.12,2.25Zm.22-3.71c0-.74.12-1.5.2-2.25h2.53c.08.75.14,1.51.2,2.25Zm4.5,1.46h2.23c.09.74.17,1.49.22,2.25h-2.33c0-.7-.07-1.46-.12-2.25Zm-.1-1.46c-.06-.74-.12-1.49-.21-2.25h1.92q.24,1.08.42,2.25Zm-6,1.46c0,.79-.08,1.55-.11,2.25h-2.33c0-.76.13-1.51.21-2.25Zm-.16,3.71c0,.58,0,1.08,0,1.5a13.78,13.78,0,0,0-1.45-1.5Zm4.7,4.07a23,23,0,0,0-1.5,3.32,21.8,21.8,0,0,0-1.49-3.32Zm1.75-2.57c0-.42,0-.93,0-1.5H125a14.7,14.7,0,0,0-1.44,1.5ZM123.17,289h-1a15.75,15.75,0,0,0-.68-2.27,6.84,6.84,0,0,1,1.67,2.27Zm-4.12-2.27a17.08,17.08,0,0,0-.69,2.27h-1a6.88,6.88,0,0,1,1.68-2.27ZM123.4,320a1.07,1.07,0,0,1-1.08,1.07h-4.09a1.07,1.07,0,0,1-1.08-1.07v-1.43a13.74,13.74,0,0,0,6.25,0Zm3.81-12.54a39.31,39.31,0,0,0-.85,4c-.46,2.68-.77,4.46-2.48,5.33a8.38,8.38,0,0,1-3.61.63c-2.65,0-3.55-.61-3.6-.63-1.72-.87-2-2.65-2.48-5.33a37,37,0,0,0-.86-4,25.37,25.37,0,0,0-2.92-6.9c2.74.52,5,2.34,6.87,5.41a21.71,21.71,0,0,1,2.28,5.72.73.73,0,0,0,1.43,0h0a21.42,21.42,0,0,1,2.28-5.71c1.82-3.07,4.12-4.89,6.87-5.41a25,25,0,0,0-2.93,6.9Zm0,0"/><path class="cls-7" d="M209,332.65l-4.9-9.15-1.79,1,4.1,7.66H196.9v-2l-4.07,3,4.07,3.05v-2h11.16a1,1,0,0,0,.88-.5,1,1,0,0,0,0-1Zm0,0"/><path class="cls-7" d="M184.74,322l1.75,1-.75-5L181.13,320l1.82,1-6.24,11.65a1,1,0,0,0,0,1,1,1,0,0,0,.87.5h13.2v-2H179.3L184.74,322Zm0,0"/><path class="cls-7" d="M197.46,319.57l4.48,2.39,1.05-5-1.93.89-7.33-13.67a1,1,0,0,0-.9-.53,1,1,0,0,0-.89.53l-6,11.17,1.79,1,5.08-9.5,6.38,11.91Zm0,0"/><path class="cls-8" d="M79.43,244.72a4.46,4.46,0,0,0-.11-3.42l-2.53-5.63-4.17,3.84.42.93-17.54,7.9,1.76,3.91v3.94H53.47v9.67H72.69v-1.79H71.13L67.25,249l8-3.61.56,1.25v13.3H74v6H79.4v-6H77.61V246.94a4.52,4.52,0,0,0,1.82-2.22Zm-20.38,7.92L64.86,250l-2,7.85v-1.68h-3.8Zm5.83,4.5H67.5l.77,3H64.12Zm.46-1.79.85-3.31.85,3.31Zm-4.29,8.72H55.26V258h5.79Zm2.05,0,.56-2.15h5.07l.55,2.15Zm-4.49-13.2-.74-1.63,15.91-7.17.73,1.64Zm19,13.2h-1.8v-2.39h1.8Zm-1.43-25.4L77.69,242a2.71,2.71,0,0,1-.59,3.05L74.79,240Zm0,0"/><rect class="cls-8" x="57.26" y="260.13" width="1.79" height="1.79"/><path class="cls-9" d="M354.7,171.19a.58.58,0,0,0-.41-.17c-.39,0-8.42.14-13.94,3.66-.94-4.85-7.71-13.34-8-13.72a.59.59,0,0,0-.9,0c-.33.41-8.12,10.19-8.12,14.75a8.54,8.54,0,0,0,11,8.2,25.65,25.65,0,0,0-.45,7.26l-4.26,4.26a.56.56,0,0,0-.16.55.57.57,0,0,0,1,.25l4.25-4.25c.37,0,1.07.08,2,.08,3.19,0,9-.57,12.74-4.31,5.23-5.23,5.41-15.71,5.41-16.15a.52.52,0,0,0-.16-.41Zm-20,11.39a7.34,7.34,0,0,1-2.81.56,7.45,7.45,0,0,1-7.43-7.43c0-3.58,5.76-11.31,7.43-13.47,1.62,2.1,7.12,9.49,7.41,13.18a11.24,11.24,0,0,0-1.17,1,14.11,14.11,0,0,0-3.43,6.14Zm13.94,4.36c-3.8,3.81-10.18,4-12.84,3.95l4.57-4.57,4.18.38h.05a.59.59,0,0,0,.6-.55.58.58,0,0,0-.55-.59l-3.23-.3,1.37-1.37,4.18.38H347a.57.57,0,0,0,.05-1.14l-3.23-.29,1.78-1.78,4.17.38h.05a.57.57,0,0,0,.06-1.14l-3.23-.3,3.17-3.17a.57.57,0,0,0-.25-1,.56.56,0,0,0-.55.16l-3.18,3.17-.3-3.22a.56.56,0,0,0-.62-.52.57.57,0,0,0-.51.62l.38,4.18L343,182l-.29-3.22a.58.58,0,0,0-1.15.1l.39,4.18-1.38,1.37-.29-3.23a.57.57,0,0,0-.62-.51.56.56,0,0,0-.52.62l.38,4.17L335,190.08c-.09-2.66.14-9,3.95-12.84.41-.4,1.35-1.13,1.36-1.14,4.43-3.21,11.34-3.81,13.4-3.92-.12,2.29-.84,10.54-5.06,14.76Zm0,0"/><path class="cls-9" d="M330.05,196.57l-.19,0a.75.75,0,0,1-.52-.53.72.72,0,0,1,.2-.71l4.2-4.2a25.86,25.86,0,0,1,.41-7,8.71,8.71,0,0,1-11-8.43c0-4.6,7.83-14.44,8.16-14.85a.77.77,0,0,1,1.14,0c.29.36,6.89,8.65,8,13.57,5.56-3.43,13.49-3.56,13.83-3.56a.72.72,0,0,1,.52.21.75.75,0,0,1,.22.53c0,.45-.21,11-5.47,16.27-3.8,3.79-9.68,4.35-12.85,4.35-.84,0-1.51,0-1.94-.07l-4.2,4.2A.71.71,0,0,1,330.05,196.57Zm4.52-12.89-.05.26a25.39,25.39,0,0,0-.45,7.22v.07l-4.31,4.31a.43.43,0,0,0-.11.4.41.41,0,0,0,.29.29.39.39,0,0,0,.4-.11l4.31-4.31h.08c.41,0,1.1.08,2,.08,3.12,0,8.91-.55,12.62-4.26,5.18-5.18,5.37-15.6,5.37-16a.42.42,0,0,0-.12-.29.38.38,0,0,0-.29-.12c-.34,0-8.37.14-13.86,3.64l-.2.12,0-.23c-.93-4.82-7.69-13.29-8-13.65a.44.44,0,0,0-.64,0c-.33.41-8.09,10.16-8.09,14.65a8.42,8.42,0,0,0,3.39,6.76,8.51,8.51,0,0,0,7.44,1.29Zm2.05,7.39h-.83l-.37,0,4.89-4.88,4.25.38,0,.17v-.16h0a.41.41,0,0,0,.42-.39.41.41,0,0,0-.39-.43l-3.57-.33,1.66-1.67,4.26.39h0a.41.41,0,0,0,.43-.39.42.42,0,0,0-.1-.3.46.46,0,0,0-.29-.13l-3.58-.32,2.08-2.08,4.25.39h0a.42.42,0,0,0,.41-.39.41.41,0,0,0-.37-.43l-3.57-.33,3.42-3.42a.39.39,0,0,0,.11-.4.41.41,0,0,0-.29-.29.42.42,0,0,0-.4.11l-3.42,3.42-.33-3.57a.4.4,0,0,0-.4-.37.41.41,0,0,0-.32.15.4.4,0,0,0-.09.3l.39,4.25-2.08,2.07-.32-3.57a.41.41,0,0,0-.73-.22.41.41,0,0,0-.1.3l.39,4.25-1.66,1.67-.33-3.57a.42.42,0,0,0-.41-.38.48.48,0,0,0-.32.15.41.41,0,0,0-.09.3l.39,4.25-4.89,4.89v-.37c-.08-2.61.13-9.09,4-13a16.49,16.49,0,0,1,1.36-1.15c4.49-3.25,11.47-3.85,13.5-4h.18v.18c-.13,2.42-.87,10.63-5.11,14.87C345.26,190.55,339.65,191.07,336.62,191.07Zm-.44-.33c2.84,0,8.76-.32,12.34-3.91,4.07-4.06,4.86-11.89,5-14.48-2.21.14-8.86.78-13.14,3.88-.16.13-1,.76-1.33,1.13-3.61,3.61-4,9.58-3.92,12.34l4.26-4.25-.38-4.1a.7.7,0,0,1,.17-.53.68.68,0,0,1,.49-.26.73.73,0,0,1,.8.66l.26,2.89,1.08-1.08-.38-4.1a.74.74,0,0,1,.67-.8.74.74,0,0,1,.8.67l.26,2.88,1.48-1.48-.37-4.1a.72.72,0,0,1,.66-.8.73.73,0,0,1,.8.66l.26,2.89,2.93-2.93a.73.73,0,0,1,1.23.32.71.71,0,0,1-.19.71L347,179.88l2.89.27a.73.73,0,0,1-.06,1.46h-.06l-4.11-.37-1.48,1.48,2.88.26a.7.7,0,0,1,.5.24.73.73,0,0,1-.54,1.22H347l-4.12-.37-1.07,1.07,2.88.27a.73.73,0,0,1,0,1.46h-.06l-4.13-.38Zm-4.29-7.44a7.62,7.62,0,0,1-7.59-7.59c0-3.62,5.71-11.3,7.46-13.57l.13-.16.13.16c1.67,2.17,7.15,9.53,7.44,13.26v.09l-.07,0a12.22,12.22,0,0,0-1.15,1,14,14,0,0,0-3.4,6.07l0,.08-.07,0A7.42,7.42,0,0,1,331.89,183.3Zm0-20.79c-1.87,2.43-7.27,9.76-7.27,13.2a7.3,7.3,0,0,0,7.27,7.27,7.17,7.17,0,0,0,2.67-.52,14.25,14.25,0,0,1,3.46-6.13,11.66,11.66,0,0,1,1.12-1C338.78,171.76,333.67,164.82,331.89,162.51Z"/><path class="cls-9" d="M326.37,174.53a.58.58,0,0,0,.74-.33,10.65,10.65,0,0,1,.47-1.1.57.57,0,0,0,0-.58.56.56,0,0,0-.53-.25.59.59,0,0,0-.47.34c-.19.42-.37.82-.5,1.19a.57.57,0,0,0,.33.73Zm0,0"/><path class="cls-9" d="M326.57,174.73h0a.74.74,0,0,1-.25,0,.73.73,0,0,1-.43-.94q.19-.54.51-1.2a.71.71,0,0,1,.6-.43.73.73,0,0,1,.72,1.06c-.2.43-.35.78-.46,1.08A.73.73,0,0,1,326.57,174.73Zm.5-2.3a.42.42,0,0,0-.38.24c-.2.44-.37.83-.5,1.18a.41.41,0,0,0,.77.29,11.59,11.59,0,0,1,.47-1.11.42.42,0,0,0,0-.42A.41.41,0,0,0,327.07,172.43Z"/><path class="cls-9" d="M331.89,180.85a5.14,5.14,0,0,1-5.14-5.14.58.58,0,0,0-.57-.57.57.57,0,0,0-.57.57,6.29,6.29,0,0,0,6.28,6.29.58.58,0,0,0,0-1.15Zm0,0"/><path class="cls-9" d="M331.89,182.16h0a6.48,6.48,0,0,1-6.45-6.45.74.74,0,0,1,1.47,0,5,5,0,0,0,5,5,.74.74,0,0,1,0,1.47Zm-5.71-6.86a.41.41,0,0,0-.41.41,6.14,6.14,0,0,0,6.12,6.13.41.41,0,0,0,.41-.41.41.41,0,0,0-.41-.41,5.32,5.32,0,0,1-5.3-5.31A.42.42,0,0,0,326.18,175.3Z"/><path class="cls-10" d="M135.2,62.78l-3.63-10.37a.51.51,0,0,0-.49-.35H108.27a.51.51,0,0,0-.49.35l-3.63,10.37a.55.55,0,0,0,0,.17V65a.51.51,0,0,0,.51.52h30.09a.51.51,0,0,0,.51-.52V63a.55.55,0,0,0,0-.17Zm-2.49-4h-5.24l-.65-2.59h5Zm-6.31,0h-6.21V56.21h5.56Zm-6.21-3.63V53.1H125l.51,2.07Zm-1,0h-5.3l.52-2.07h4.78Zm0,1V58.8H113l.65-2.59Zm-7.28,2.59h-5.24l.9-2.59h5Zm-.26,1-.65,2.6h-5.6l.9-2.6Zm1.07,0h6.47v2.6H112Zm7.5,0h6.47l.65,2.6h-7.12Zm8.19,2.6-.65-2.6h5.35l.9,2.6Zm3.06-7.27h-4.88L126,53.1h4.68ZM108.63,53.1h4.68l-.52,2.07h-4.88Zm-3.48,11.41v-1h29v1Zm0,0"/><path class="cls-11" d="M134.72,65.88H104.63a.85.85,0,0,1-.84-.85V63a.9.9,0,0,1,0-.28l3.63-10.37a.86.86,0,0,1,.81-.57h22.81a.84.84,0,0,1,.8.57l3.64,10.37a.9.9,0,0,1,0,.28V65A.85.85,0,0,1,134.72,65.88ZM108.27,52.39a.18.18,0,0,0-.18.13l-3.63,10.37V65a.19.19,0,0,0,.18.19h30.09a.19.19,0,0,0,.18-.19V63l-3.64-10.43a.18.18,0,0,0-.18-.13Zm26.26,12.45H104.82v-1.7h29.71Zm-29-.66h28.39V63.8H105.48Zm29-1.41h-6.33l-.81-3.26h6Zm-5.81-.66h4.88l-.68-1.94h-4.69Zm-.91.66h-7.87V59.51h7.06Zm-7.21-.66h6.37l-.49-1.94h-5.88Zm-1,.66h-7.87l.81-3.26h7.06Zm-7-.66h6.37V60.17H113Zm-1.23.66H104.9L106,59.51h6Zm-5.4-.66h4.89l.48-1.94h-4.69Zm27.35-3h-6l-.81-3.25H132Zm-5.45-.65h4.52l-.68-1.94h-4.33Zm-.91.65h-7V55.88H126Zm-6.3-.65H126l-.48-1.94h-5Zm-1,.65h-7l.81-3.25h6.15Zm-6.12-.65h5.46V56.54h-5Zm-1.23.65h-6l1.14-3.25H113Zm-5-.65h4.52l.49-1.94h-4.33Zm24.81-3h-5.6l-.69-2.73H131Zm-5.09-.66H131l-.5-1.41h-4Zm-.9.66h-6.06V52.77h5.37Zm-5.4-.66h4.55l-.35-1.41h-4.2Zm-1,.66h-6.06l.69-2.73h5.37Zm-5.21-.66h4.55V53.43h-4.2Zm-1.23.66h-5.61l1-2.73h5.33Zm-4.68-.66h4.16l.35-1.41h-4Z"/><path class="cls-10" d="M105.49,49.47h28.37a.52.52,0,0,0,.5-.36.52.52,0,0,0-.19-.58L130.66,46l1.78-3.94a.49.49,0,0,0,0-.47.51.51,0,0,0-.39-.26l-4.3-.43-.43-4.3a.51.51,0,0,0-.26-.4.52.52,0,0,0-.47,0L122.62,38l-2.52-3.5a.55.55,0,0,0-.85,0L116.73,38l-3.94-1.77a.52.52,0,0,0-.47,0,.53.53,0,0,0-.26.4l-.43,4.3-4.3.43a.53.53,0,0,0-.4.25.54.54,0,0,0,0,.48L108.69,46l-3.51,2.52a.52.52,0,0,0-.19.58.52.52,0,0,0,.5.36Zm6.43-1a7.77,7.77,0,0,1,15.51,0Zm-2.28-1.83a.52.52,0,0,0,.17-.63l-1.66-3.67,4-.4a.52.52,0,0,0,.46-.47l.4-4,3.67,1.65a.52.52,0,0,0,.63-.17l2.36-3.26L122,38.91a.52.52,0,0,0,.63.17l3.67-1.65.4,4a.51.51,0,0,0,.46.47l4,.4L129.54,46a.52.52,0,0,0,.17.63l2.55,1.83h-3.79a8.81,8.81,0,0,0-17.59,0h-3.79Zm0,0"/><path class="cls-11" d="M133.86,49.8H105.49a.85.85,0,0,1-.81-.59.84.84,0,0,1,.31-1l3.28-2.37-1.66-3.69A.85.85,0,0,1,107.3,41l4-.4.4-4a.85.85,0,0,1,.42-.65.86.86,0,0,1,.78,0l3.69,1.66L119,34.27a.88.88,0,0,1,1.36,0l2.38,3.3,3.69-1.66a.86.86,0,0,1,.78,0,.85.85,0,0,1,.42.64l.4,4,4,.4a.85.85,0,0,1,.65.42.84.84,0,0,1,0,.77l-1.66,3.69,3.28,2.37a.84.84,0,0,1,.31,1A.85.85,0,0,1,133.86,49.8ZM112.58,36.47a.17.17,0,0,0-.1,0,.19.19,0,0,0-.09.14l-.46,4.57-4.56.46a.17.17,0,0,0-.15.09.2.2,0,0,0,0,.17l1.89,4.19-3.73,2.68a.21.21,0,0,0-.07.21.2.2,0,0,0,.19.13h28.37A.17.17,0,0,0,134,49a.19.19,0,0,0-.06-.21l-3.73-2.68,1.89-4.19a.2.2,0,0,0,0-.17.19.19,0,0,0-.15-.09l-4.56-.46L127,36.64a.19.19,0,0,0-.09-.14.17.17,0,0,0-.18,0l-4.18,1.88-2.68-3.72a.23.23,0,0,0-.32,0l-2.67,3.71-4.18-1.88Zm20.7,12.29h-5.13v-.31a8.48,8.48,0,0,0-16.93,0v.31h-5.13l3.37-2.43a.19.19,0,0,0,.07-.23L107.66,42l4.47-.45a.18.18,0,0,0,.16-.17l.45-4.46,4.08,1.84a.2.2,0,0,0,.24-.06l2.62-3.63,2.61,3.63a.2.2,0,0,0,.24.06l4.08-1.84.45,4.46a.19.19,0,0,0,.17.17l4.46.45-1.84,4.08a.17.17,0,0,0,.06.23Zm-4.51-.66h2.46l-1.71-1.23a.86.86,0,0,1-.28-1l1.47-3.25-3.55-.35a.85.85,0,0,1-.76-.76l-.35-3.55-3.25,1.46a.88.88,0,0,1-1-.27l-2.08-2.9-2.09,2.89a.87.87,0,0,1-1,.28l-3.25-1.46L113,41.46a.86.86,0,0,1-.76.77l-3.55.35,1.47,3.25a.86.86,0,0,1-.28,1l-1.72,1.23h2.47a9.13,9.13,0,0,1,18.19,0Zm-1,.66H111.57l0-.35a8.1,8.1,0,0,1,16.17,0Zm-15.5-.66h14.79a7.44,7.44,0,0,0-14.79,0Z"/><path class="cls-12" d="M236.12,162.22l-.08-.15a8.48,8.48,0,0,0-7.23-4.1H201V130.15a8.31,8.31,0,0,0-6.17-8,9.17,9.17,0,0,0-2.1-.3,8.52,8.52,0,0,0-7,3.89l-36.17,60.28a8.79,8.79,0,0,0-.17,8.25l.08.15a8.48,8.48,0,0,0,7.23,4.1h27.81v27.82a8.31,8.31,0,0,0,6.17,8,9.17,9.17,0,0,0,2.1.3,8.28,8.28,0,0,0,7.1-4l36.09-60.13,0-.06A8.82,8.82,0,0,0,236.12,162.22Z"/><path class="cls-4" d="M234.1,163.23a6.26,6.26,0,0,0-5.29-3H198.74V130.15a6,6,0,0,0-4.45-5.77,7,7,0,0,0-1.56-.24,6.26,6.26,0,0,0-5.17,2.89l-36.09,60.14a6.5,6.5,0,0,0-.11,6.13,6.26,6.26,0,0,0,5.29,3h30.07v30.07a6,6,0,0,0,4.45,5.77,7,7,0,0,0,1.56.24,6.09,6.09,0,0,0,5.17-2.89L234,169.37a6.49,6.49,0,0,0,.12-6.14Zm0,0"/><path class="cls-13" d="M234,169.37,197.9,229.5a6.09,6.09,0,0,1-5.17,2.89V124.14a7,7,0,0,1,1.56.24,6,6,0,0,1,4.45,5.77v30.07h30.07a6.26,6.26,0,0,1,5.29,3,6.49,6.49,0,0,1-.12,6.14Zm0,0"/><path class="cls-4" d="M192.73,58A24.27,24.27,0,1,1,217,33.71,24.29,24.29,0,0,1,192.73,58Zm0-45.23a21,21,0,1,0,21,21A21,21,0,0,0,192.73,12.74Z"/><path class="cls-7" d="M192.73,347.27A24.27,24.27,0,1,1,217,323,24.29,24.29,0,0,1,192.73,347.27Zm0-45.23a21,21,0,1,0,21,21A21,21,0,0,0,192.73,302Z"/><path class="cls-14" d="M317.75,129.82a24.37,24.37,0,0,1-21-12A24.28,24.28,0,0,1,317.7,81.28a24.27,24.27,0,0,1,.05,48.54Zm-.05-45.24A21,21,0,1,0,335.84,95,20.95,20.95,0,0,0,317.7,84.58Z"/><path class="cls-8" d="M67.76,275.43A24.27,24.27,0,1,1,80,272.13,24.36,24.36,0,0,1,67.76,275.43Zm-.05-45.24a21,21,0,1,0,10.58,39.09,21,21,0,0,0,7.56-28.67A21,21,0,0,0,67.71,230.19Z"/><path class="cls-1" d="M318.49,274.06a24.27,24.27,0,1,1,21.13-12.29A24.31,24.31,0,0,1,318.49,274.06Zm.05-45.24a21,21,0,1,0,10.33,2.73A21,21,0,0,0,318.54,228.82Z"/><path class="cls-3" d="M66.92,131.2A24.27,24.27,0,1,1,88,118.91,24.31,24.31,0,0,1,66.92,131.2ZM67,86A21,21,0,1,0,77.3,88.69,21,21,0,0,0,67,86Z"/><path class="cls-5" d="M265.41,77.57a24.26,24.26,0,1,1,21-12.07A24.26,24.26,0,0,1,265.41,77.57Zm0-45.24a21,21,0,0,0-18.14,10.44,21,21,0,0,0,18.1,31.5,21,21,0,0,0,18.15-10.43,21,21,0,0,0-18.11-31.51Z"/><path class="cls-6" d="M120,327.68a24.27,24.27,0,1,1,21-12.07A24.26,24.26,0,0,1,120,327.68Zm0-45.24A21,21,0,1,0,138.15,314,21,21,0,0,0,120,282.44Z"/><path class="cls-9" d="M337.38,202.51a24.28,24.28,0,1,1,17.17-7.12,24.29,24.29,0,0,1-17.17,7.12Zm0-45.23a21,21,0,1,0,0,41.93v1.65l0-1.65a21,21,0,0,0,0-41.93Z"/><path class="cls-2" d="M48.08,202.74a24.26,24.26,0,1,1,17.17-7.12,24.3,24.3,0,0,1-17.17,7.12Zm0-45.24a21,21,0,1,0,0,41.94v0a21,21,0,0,0,0-41.94Z"/><path class="cls-15" d="M265.59,327.6a24.36,24.36,0,0,1-21-12.05,24.27,24.27,0,0,1,8.74-33.18,24.27,24.27,0,1,1,12.24,45.23Zm0-45.24a21,21,0,1,0,18.13,10.41A21,21,0,0,0,265.55,282.36Z"/><path class="cls-11" d="M119.91,77.65a24.37,24.37,0,0,1-21-12.05,24.27,24.27,0,1,1,21,12.05Zm0-45.24A21,21,0,1,0,138,42.83,21,21,0,0,0,119.87,32.41Z"/><path class="cls-15" d="M280.3,306.27l-.16-2.84-1.74,2.26a4.72,4.72,0,0,1-.81.78,11.24,11.24,0,0,0,.37-1.67,11.87,11.87,0,0,0-2.5-8.93l-1.1-1.47-.72,1.69c-.84,2-2.18,2.92-3.43,2.49a4,4,0,0,1-2.14-3c-.38-1.48-.6-4.09.49-8.09l.46-1.69-1.71.39c-5.79,1.3-9.69,5.41-11.28,11.88a28.69,28.69,0,0,0-.78,7,11.65,11.65,0,0,1-2.07-2.1l-1.3-1.91-.59,2.24a14.78,14.78,0,0,0,14.09,18.55h.36a14.78,14.78,0,0,0,14.58-14.76c0-.27,0-.55,0-.84Zm-14.74,13.48a5,5,0,0,1-4.95-4.95c0-4.76,2.25-6.9,4-7.84a5.57,5.57,0,0,0,.34,3.21,3.47,3.47,0,0,0,2.66,2.23,2.72,2.72,0,0,0,1.92-.54,4.95,4.95,0,0,1-4,7.89Zm6.25-1.66a7,7,0,0,0,.82-3.29,7.09,7.09,0,0,0-2.35-5.26l-.87-.78-.69.94c-.17.24-.52.63-.87.6s-.67-.35-1-1a3.53,3.53,0,0,1,.47-3.49l1.47-2-2.45.31a9.13,9.13,0,0,0-4,1.73c-3.23,2.43-3.91,6.19-3.91,8.92a7.07,7.07,0,0,0,.82,3.3,12.65,12.65,0,0,1-6.4-11q0-.6.06-1.2a16.61,16.61,0,0,0,2.91,2.19l1.84,1.09-.25-2.12a27.48,27.48,0,0,1,.63-8.57c1.25-5,3.93-8.31,8-9.78a17,17,0,0,0-.08,7.36c.58,2.28,1.86,3.92,3.5,4.5a4.07,4.07,0,0,0,3.48-.42,5.88,5.88,0,0,0,1.69-1.62,9.34,9.34,0,0,1,1.2,5.87,8.27,8.27,0,0,1-1,3.15l-.9,1.39,1.64.24a4,4,0,0,0,2.53-.53,12.66,12.66,0,0,1-6.3,9.43Zm0,0"/><path class="cls-14" d="M311.81,99.87a1,1,0,0,0,.79.39,1,1,0,0,0,.59-.19,1,1,0,0,0,.19-1.38,5,5,0,0,1,.13-6.18,1,1,0,0,0-.14-1.39,1,1,0,0,0-1.38.14,7,7,0,0,0-.18,8.61Zm0,0"/><path class="cls-14" d="M309.71,102.9a1,1,0,0,0,.62-.22,1,1,0,0,0,.14-1.38,8.93,8.93,0,0,1,.17-11.44,1,1,0,0,0-.1-1.38,1,1,0,0,0-1.39.1,10.87,10.87,0,0,0-.2,14,1,1,0,0,0,.76.36Zm0,0"/><path class="cls-14" d="M322.4,95.68a5,5,0,0,1-1,3,1,1,0,0,0,.2,1.38,1,1,0,0,0,.59.19,1,1,0,0,0,.78-.39,7,7,0,0,0-.18-8.61,1,1,0,1,0-1.51,1.25,5,5,0,0,1,1.13,3.17Zm0,0"/><path class="cls-14" d="M326.29,95.68a8.91,8.91,0,0,1-2,5.62,1,1,0,0,0,.14,1.38,1,1,0,0,0,1.38-.14,10.87,10.87,0,0,0-.2-14,1,1,0,0,0-1.38-.1,1,1,0,0,0-.11,1.38,8.9,8.9,0,0,1,2.16,5.82Zm0,0"/><path class="cls-14" d="M326.62,119.78h-2.76l-5-21.39a3.08,3.08,0,1,0-2.92,0l-5,21.39h-2.75a1,1,0,0,0,0,2h18.46a1,1,0,0,0,0-2Zm-6.63-7.9-3.75-2.24,2.84-1.66Zm-2.6-17.31a1.12,1.12,0,1,1-1.12,1.11,1.11,1.11,0,0,1,1.12-1.11Zm0,6.2,1.22,5.21-2.83,1.66ZM315,111.16l4.6,2.74-6.09,3.6Zm-1.49,8.62,7.36-4.35,1,4.35Zm0,0"/><path class="cls-16" d="M211.45,84.16,181.5,63.66a9.78,9.78,0,0,0-5.39-1.9c-3.09,0-6.2,2.28-6.2,7.38v9a102.46,102.46,0,0,0-68.09,52.45l-1.29,2.44,2.54,1.11a112.23,112.23,0,0,1,18.85,10.09l2.4,1.66,1.35-2.58a76.07,76.07,0,0,1,44.24-37.18v7.3c0,5.09,3.11,7.37,6.19,7.37a9.72,9.72,0,0,0,5.37-1.9l30-20.51a8.24,8.24,0,0,0,0-14.26Z"/><path class="cls-17" d="M210,86.29,180,65.78a7.38,7.38,0,0,0-3.93-1.45c-2.24,0-3.63,1.8-3.63,4.81V80.25a100.39,100.39,0,0,0-68.38,51.57,112.71,112.71,0,0,1,19.29,10.32,78.53,78.53,0,0,1,49.09-39.41v10.73c0,3,1.38,4.79,3.62,4.79A7.26,7.26,0,0,0,180,116.8l30-20.5a5.69,5.69,0,0,0,0-10Z"/><path class="cls-16" d="M135.92,158l-2.63-36.22A8.23,8.23,0,0,0,121,114.64l-32.8,15.55a9.68,9.68,0,0,0-4.35,3.7,5.7,5.7,0,0,0-.39,5.21A8.33,8.33,0,0,0,87.08,143l7.72,4.5a102.54,102.54,0,0,0,12.55,87.75l1.48,2.21,2.16-1.55c2-1.4,3.9-2.87,5.78-4.29a125,125,0,0,1,11.86-8.27l2.34-1.37-1.49-2.26A75.51,75.51,0,0,1,119,161.55l6.4,3.73a8.69,8.69,0,0,0,4.37,1.31h0a5.79,5.79,0,0,0,5.11-3A9.7,9.7,0,0,0,135.92,158Z"/><path class="cls-18" d="M133.35,158.23,130.72,122a5.69,5.69,0,0,0-8.64-5.05l-32.8,15.55a7.33,7.33,0,0,0-3.23,2.67c-1.13,1.94-.27,4,2.33,5.55l9.52,5.55a99.88,99.88,0,0,0,11.59,87.5c6-4.25,11.53-9,17.84-12.69a78.09,78.09,0,0,1-10-63.49l9.35,5.45c2.6,1.51,4.84,1.22,6-.71A7.29,7.29,0,0,0,133.35,158.23Z"/><path class="cls-16" d="M203.53,255.56l-.43-2.34-2.37.25a77.42,77.42,0,0,1-8,.42,75,75,0,0,1-51.21-20l6.5-3.74c4.41-2.53,4.84-6.36,3.3-9a9.74,9.74,0,0,0-4.32-3.71L114.3,201.6a8.71,8.71,0,0,0-8.23,0,8.61,8.61,0,0,0-4.14,7.11l-2.87,36.18a9.77,9.77,0,0,0,1,5.62,5.8,5.8,0,0,0,5.14,3,8.71,8.71,0,0,0,4.35-1.29l7.68-4.41a102.75,102.75,0,0,0,75.46,33.14c3.26,0,6.66-.16,10.09-.5l2.14-.21.17-2.15C205.66,271.53,205.15,264.38,203.53,255.56Z"/><path class="cls-19" d="M201,256a80.74,80.74,0,0,1-8.27.44,77.93,77.93,0,0,1-55.46-23.14l9.46-5.44c2.61-1.5,3.47-3.59,2.36-5.52a7.22,7.22,0,0,0-3.21-2.68l-32.7-15.77a5.68,5.68,0,0,0-8.69,5l-2.86,36.19a7.38,7.38,0,0,0,.7,4.13c1.12,1.94,3.37,2.25,6,.75l9.48-5.44a99.87,99.87,0,0,0,74.94,33.83c3.32,0,6.6-.18,9.84-.49A83.4,83.4,0,0,0,201,256Z"/><path class="cls-16" d="M284,219c-6.41-2.5-12.22-6.24-18.62-10.52l-2.52-1.68-1.25,2.75a75.53,75.53,0,0,1-46.05,40.86V242.8c0-5.1-3.11-7.38-6.19-7.38a9.72,9.72,0,0,0-5.37,1.9l-30,20.51a8.24,8.24,0,0,0,0,14.26l30,20.5a9.75,9.75,0,0,0,5.39,1.9c3.09,0,6.2-2.28,6.2-7.38v-8.76a103.39,103.39,0,0,0,69.83-55.89l1.19-2.5Z"/><path class="cls-20" d="M283.05,221.35c-6.82-2.66-13-6.7-19.11-10.78a78.53,78.53,0,0,1-51,43.22v-11c0-3-1.38-4.8-3.61-4.8a7.26,7.26,0,0,0-3.92,1.45l-30,20.5a5.69,5.69,0,0,0,0,10l29.95,20.51a7.4,7.4,0,0,0,3.94,1.45c2.24,0,3.62-1.8,3.62-4.81V276.28A100.43,100.43,0,0,0,283.05,221.35Z"/><path class="cls-16" d="M302,217.15a8.33,8.33,0,0,0-3.64-3.86l-7.65-4.45a102.48,102.48,0,0,0-14-89.51l-1.57-2.24-2.14,1.7-1.68,1.34c-5.43,4.31-11,8.76-14.91,14.54l-.94,1.4.91,1.43a75.57,75.57,0,0,1,10.15,57.24L260.09,191a8.64,8.64,0,0,0-4.37-1.32,5.82,5.82,0,0,0-5.12,3,9.78,9.78,0,0,0-1.06,5.6l2.62,36.22a8.66,8.66,0,0,0,4.09,7.14,7.86,7.86,0,0,0,4,1.06h0a9.93,9.93,0,0,0,4.24-1l32.79-15.55a9.83,9.83,0,0,0,4.36-3.7A5.78,5.78,0,0,0,302,217.15Z"/><path class="cls-21" d="M297.08,215.52l-9.44-5.5a100,100,0,0,0-13-89.21c-5.74,4.58-12,9.26-16.07,15.29a78.13,78.13,0,0,1,9.66,62.59l-9.42-5.49c-2.6-1.51-4.85-1.22-6,.71a7.21,7.21,0,0,0-.72,4.11l2.62,36.22a5.69,5.69,0,0,0,8.65,5l32.79-15.55a7.36,7.36,0,0,0,3.24-2.67C300.53,219.13,299.68,217,297.08,215.52Z"/><path class="cls-16" d="M285.36,105.76a5.81,5.81,0,0,0-5.15-3,8.71,8.71,0,0,0-4.34,1.29L268,108.57a102.79,102.79,0,0,0-68.75-32.74l12.18,8.33a8.24,8.24,0,0,1,0,14.26l-7.4,5.06a75,75,0,0,1,39.71,19l-6.31,3.63c-4.42,2.53-4.84,6.37-3.31,9a9.7,9.7,0,0,0,4.33,3.71l32.7,15.77a9.83,9.83,0,0,0,4.31,1,7.81,7.81,0,0,0,3.92-1,8.61,8.61,0,0,0,4.14-7.11l2.86-36.18A9.69,9.69,0,0,0,285.36,105.76Z"/><path class="cls-22" d="M283.12,107c-1.11-1.94-3.36-2.25-6-.75l-9.65,5.54a99.91,99.91,0,0,0-63.94-33.06l7.89,5.39a8.24,8.24,0,0,1,0,14.26l-4.34,3A78.24,78.24,0,0,1,248,123l-9.29,5.34c-2.6,1.5-3.47,3.59-2.36,5.53a7.33,7.33,0,0,0,3.21,2.67l32.71,15.77a5.68,5.68,0,0,0,8.68-5l2.87-36.19A7.29,7.29,0,0,0,283.12,107Z"/><text class="cls-23" transform="translate(410.28 178.18)">Clu<tspan class="cls-24" x="110.44" y="0">s</tspan><tspan class="cls-25" x="151.08" y="0">t</tspan><tspan class="cls-26" x="177.15" y="0">er Ene</tspan><tspan class="cls-27" x="412.5" y="0">r</tspan><tspan x="435.65" y="0">g</tspan><tspan class="cls-27" x="483.83" y="0">é</tspan><tspan class="cls-28" x="530.47" y="0">tico</tspan><tspan x="0" y="66">del In</tspan><tspan class="cls-25" x="188.04" y="66">t</tspan><tspan class="cls-26" x="214.11" y="66">e</tspan><tspan class="cls-25" x="261.69" y="66">r</tspan><tspan x="284.84" y="66">oceánico</tspan></text></svg>