<svg width="1384" height="1422" viewBox="0 0 1384 1422" fill="none" xmlns="http://www.w3.org/2000/svg">
<g opacity="0.4">
<path d="M0 1421.71V0H1384V1422L0 1421.71Z" fill="#F5FAFE"/>
<path d="M0 500.583L9.44572 499.684L39.8819 497.501L69.8337 492.429L100.351 490.824L130.06 483.569L159.528 474.773L190.206 473.874L220.562 470.792L251.321 471.498L281.434 466.683L312.678 472.461L342.387 463.408L373.631 469.058L404.148 468.609L434.342 463.344L464.939 463.729L495.456 462.895L525.57 456.602L555.764 450.824L586.684 456.923L617.282 458.657L647.557 452.557L678.316 457.501L708.591 452.172L739.108 450.118L769.544 446.137L800.222 455.254L830.578 444.66L861.095 445.623L891.612 449.219L922.128 451.402L952.645 449.732L983.162 452.301L1013.6 454.997L1044.2 452.301L1074.87 445.174L1105.39 446.907L1135.59 456.089L1166.02 457.886L1196.86 452.172L1227.38 452.365L1257.98 451.53L1287.77 462.317L1318.77 456.731L1349.2 457.886L1384 465.206V833.681L865.616 892.429L0 826.554V500.583Z" fill="#CFCFCF"/>
<path d="M739.188 807.744C738.461 807.294 737.492 807.358 736.766 807.358H731.922H722.234H717.067C717.471 807.166 717.793 806.909 718.036 806.588C718.601 805.946 718.439 805.176 718.439 804.469C718.439 803.699 717.874 803.057 717.067 802.672C716.502 802.415 715.937 802.415 715.371 802.415C715.533 798.819 715.452 795.224 715.533 791.628C715.452 788.033 715.533 784.373 715.371 780.777C715.775 780.777 716.26 780.777 716.663 780.649C716.905 780.585 716.986 780.328 717.228 780.2C717.39 780.071 717.551 780.007 717.632 779.879C717.793 779.686 718.036 779.622 718.197 779.493C718.52 778.915 718.359 778.338 718.359 777.824H718.439C718.52 776.732 717.228 775.705 715.856 775.705H711.9H710.689C711.173 775.192 711.577 774.549 711.577 773.843V772.816C711.577 771.147 709.882 769.798 707.783 769.798H705.361V767.037C708.429 766.46 710.85 764.148 710.85 761.387C710.85 759.525 709.72 757.728 707.944 756.636V746.684C707.944 745.272 706.733 744.116 705.118 743.795V616.155H704.715C705.522 614.485 706.329 612.816 707.056 611.147C707.783 611.275 708.509 611.403 709.236 611.468H709.317V611.403C710.931 607.936 712.465 604.405 713.838 600.874V600.81L713.757 600.745C713.111 600.424 712.384 600.167 711.739 599.846C712.707 597.342 713.676 594.774 714.564 592.206C714.806 591.436 715.049 590.665 715.291 589.895C716.017 590.023 716.825 590.151 717.551 590.216V590.151L717.632 590.216V590.151C718.843 586.556 719.893 582.896 720.861 579.237V579.172H720.781C720.054 578.723 719.327 578.466 718.601 578.081C719.489 574.742 720.215 571.468 720.861 568.129C721.669 568.193 722.395 568.322 723.203 568.322V568.257H723.283V568.193C723.283 568.065 723.283 567.936 723.364 567.872C723.606 566.716 723.687 565.561 723.848 564.469C724.252 562.158 724.575 559.911 724.817 557.92C724.898 557.021 725.14 556.123 725.221 555.224C725.625 550.858 725.947 546.492 725.705 542.126H725.625L725.705 541.933L706.087 536.54L705.845 536.476L705.684 536.604L667.658 579.493L519.353 538.594L520.321 536.347H520.241V536.283L505.87 532.238L505.709 532.174L505.628 532.302C505.305 533.073 504.982 533.843 504.659 534.549L475.515 526.588L476.484 524.277L476.322 524.212V524.084L461.952 520.103L461.79 520.039L461.71 520.168C461.387 520.938 461.064 521.708 460.741 522.479L369.997 497.696L371.935 493.137L371.773 493.073L371.854 492.944L360.229 489.734L359.986 489.67L359.906 489.798C356.999 494.742 354.416 499.814 351.994 504.951C349.653 510.087 347.392 515.224 345.535 520.488C341.741 530.89 338.754 541.484 336.816 552.206L312.354 552.334H312.193L312.112 552.463L308.963 559.076L309.125 559.14L308.721 560.103L309.206 560.232L307.026 564.533C306.38 565.818 307.026 567.23 308.398 568.065L292.494 602.671L270.212 609.477L270.454 609.285L266.982 606.524C265.529 605.368 263.107 605.368 261.573 606.524L259.151 608.386L234.124 588.161L233.882 587.968L233.721 588.097L231.137 585.978C230.653 585.593 230.249 585.143 229.522 584.951C229.28 584.887 228.957 584.951 228.634 584.951C228.554 584.951 228.473 584.951 228.392 584.951C228.069 584.951 227.666 584.887 227.343 584.951C226.697 585.208 226.293 585.657 225.809 585.978L224.356 587.07L221.53 589.317L218.704 591.564L217.251 592.72C216.847 593.105 216.282 593.426 215.959 594.004C215.798 594.261 215.959 594.517 215.959 594.838C215.959 594.903 215.959 594.967 215.959 595.031C215.959 595.224 215.798 595.48 215.959 595.673C216.202 596.251 216.767 596.572 217.251 596.957L219.915 599.076L209.743 618.98L204.657 628.931L202.073 633.94C201.67 634.774 201.266 635.609 201.024 636.508C200.943 636.957 200.862 637.407 200.862 637.92C200.943 638.177 201.024 638.434 201.266 638.627C201.508 638.819 201.912 638.819 202.235 638.819V638.691V638.755C203.93 638.37 205.141 637.342 206.352 636.444L209.904 633.619L217.009 628.033L224.113 622.447C225.324 621.548 226.374 620.456 227.746 619.814C229.119 619.108 230.814 618.851 232.429 618.98C235.9 619.172 237.919 621.676 240.26 623.41L247.284 629.06L250.432 631.564L243.005 646.074L239.291 653.394C238.645 654.614 237.999 655.769 237.515 657.053C237.273 657.696 237.031 658.338 236.95 658.98C236.95 659.301 236.869 659.686 237.111 660.007C237.273 660.392 237.919 660.585 238.322 660.456V660.328V660.456C239.776 660.135 240.906 659.301 241.955 658.594L245.023 656.155L248.898 653.137V664.694L203.527 700.521C188.349 712.527 173.333 724.662 158.155 736.732L158.074 736.797V736.925L158.155 754.132H157.025H154.925C154.199 754.132 153.392 754.453 152.907 754.903C152.423 755.352 152.181 756.058 152.261 756.572V758.241L152.342 771.468H152.181H148.467H146.61C145.964 771.468 145.238 771.532 144.672 771.853C144.107 772.174 143.623 772.623 143.461 773.201C143.3 773.779 143.381 774.228 143.381 774.742V777.696V783.667V807.358H139.344H136.922C136.196 807.358 135.227 807.294 134.5 807.744C133.774 808.129 133.289 808.835 133.289 809.477V811.403V815.256C133.289 815.834 133.208 816.604 133.774 817.182C134.258 817.76 135.146 818.081 136.034 818.081V817.952V818.017L442.899 818.145L596.291 818.081H672.987H711.335H730.549H735.312H737.734C738.542 818.081 739.349 817.696 739.833 817.118C740.318 816.54 740.318 815.834 740.237 815.192V813.265V809.477H740.318C740.318 808.835 739.914 808.129 739.188 807.744ZM513.944 667.776L509.261 668.418L488.836 582.575L493.518 581.933L513.944 667.776ZM537.679 767.294L532.996 767.936L510.714 674.389L515.397 673.747L537.679 767.294ZM547.205 807.294H535.338V783.731V777.76V774.806C535.338 774.485 535.257 774.164 535.257 773.843L538.971 773.33L547.205 807.294ZM266.579 722.671L266.256 722.415L267.063 722.864C267.063 731.018 266.982 739.172 267.063 747.262V754.132L227.181 754.068L266.579 722.671ZM460.821 586.171L504.982 771.468L459.207 771.403L387.516 771.339L460.821 586.171ZM487.382 576.668L484.961 566.46L491.096 568.193L490.289 568.322L492.146 576.026L487.382 576.668ZM251.159 651.339L257.214 646.46C259.232 644.919 261.089 643.185 263.188 641.773L276.59 652.431H249.867L251.159 651.339ZM549.789 807.294L547.851 799.333L554.391 798.177L556.57 807.294H549.789ZM547.367 797.278L544.057 783.217L550.596 782.126L553.906 796.187L547.367 797.278ZM543.572 781.227L541.554 772.88L548.174 771.917L550.112 780.071L543.572 781.227ZM540.182 766.973L536.387 751.115L542.927 750.023L546.721 766.074L540.182 766.973ZM535.903 749.124L532.512 734.999L539.051 733.907L542.442 748.033L535.903 749.124ZM532.108 733.009L528.718 718.948L535.257 717.856L538.648 731.917L532.108 733.009ZM528.314 716.957L524.923 702.832L531.463 701.741L534.853 715.866L528.314 716.957ZM524.439 700.842L521.129 686.781L527.668 685.689L531.059 699.75L524.439 700.842ZM520.644 684.79L517.899 673.362L524.52 672.399L527.184 683.635L520.644 684.79ZM516.527 667.391L513.459 654.549L519.999 653.458L523.066 666.428L516.527 667.391ZM512.975 652.623L509.584 638.562L516.123 637.471L519.514 651.532L512.975 652.623ZM509.1 636.572L505.709 622.511L512.248 621.419L515.639 635.48L509.1 636.572ZM505.305 620.456L501.914 606.395L508.454 605.304L511.764 619.365L505.305 620.456ZM501.511 604.405L498.12 590.344L504.659 589.253L508.05 603.314L501.511 604.405ZM497.636 588.354L496.021 581.612L502.641 580.649L504.175 587.198L497.636 588.354ZM494.648 575.641L492.953 568.643L501.107 570.89L500.3 571.018L501.188 574.678L494.648 575.641ZM702.939 621.098C702.616 620.97 702.293 620.842 701.97 620.713C702.293 620.135 702.616 619.493 702.939 618.915V621.098ZM352.236 577.824C352.398 577.824 352.559 577.888 352.72 577.888C354.254 577.888 355.708 577.118 356.273 575.962L358.452 571.532L358.21 571.468V571.403L358.372 571.468L361.036 566.01L361.117 565.882L361.036 565.818L345.697 554.453L357.322 527.936L447.904 552.977C447.501 553.875 447.097 554.838 446.693 555.737H446.855L446.774 555.801L451.134 557.021L373.711 752.527L373.953 710.729C373.953 703.025 374.115 695.32 374.034 687.615L373.872 664.501V664.18L373.549 664.052L337.623 652.238L337.462 652.495V652.367H335.363L322.284 642.094L322.769 642.222L352.236 577.824ZM707.621 771.789C708.348 771.789 708.913 772.238 708.913 772.816V773.843C708.913 774.421 708.348 774.871 707.621 774.871H700.436C699.709 774.871 699.144 774.421 699.144 773.843V772.816C699.144 772.238 699.709 771.789 700.436 771.789H702.616C702.616 772.366 703.181 772.816 703.907 772.816C704.634 772.816 705.199 772.366 705.199 771.789H707.621ZM700.517 769.734C698.418 769.734 696.722 771.082 696.722 772.752V773.779C696.722 774.485 697.045 775.127 697.61 775.641H696.076H692.121C690.667 775.641 689.456 776.668 689.456 777.76H689.537C689.537 778.338 689.456 778.915 689.699 779.429C689.779 779.557 690.021 779.622 690.102 779.75C690.264 779.943 690.425 780.071 690.667 780.2C690.829 780.328 690.99 780.521 691.152 780.585C691.717 780.713 692.201 780.713 692.766 780.713C692.605 784.373 692.605 787.968 692.605 791.564C692.686 795.159 692.605 798.755 692.766 802.35C692.12 802.35 691.394 802.35 690.748 802.607C689.941 802.992 689.376 803.635 689.376 804.405C689.376 805.111 689.214 805.818 689.779 806.524C690.021 806.845 690.344 807.102 690.748 807.294H663.864L586.119 807.23H559.073L550.596 771.596L553.503 771.211C554.552 771.082 555.359 770.633 555.925 769.991C556.49 769.349 556.732 768.514 556.57 767.744C556.247 766.139 554.229 764.983 552.13 765.304L549.143 765.753L526.861 672.206L528.879 671.949C529.848 671.821 530.736 671.371 531.301 670.729C531.866 670.087 532.108 669.253 531.947 668.482L530.655 668.675L531.947 668.482C531.543 666.877 529.606 665.721 527.507 666.042L525.408 666.363L504.982 580.521L506.758 580.264C507.727 580.135 508.615 579.686 509.18 579.044C509.745 578.402 509.988 577.567 509.826 576.797L508.534 576.989L509.826 576.797C509.423 575.127 507.485 574.036 505.386 574.357L503.529 574.614L502.802 571.66L504.659 572.174L504.901 572.238L504.982 572.046L506.112 569.349L648.848 608.322L640.452 686.845V687.037L640.694 687.102L650.543 689.798L650.624 689.606L650.705 689.67C651.916 688.514 653.046 687.294 654.338 686.074C656.598 683.891 658.859 681.644 661.038 679.461C663.299 677.15 665.479 674.838 667.658 672.463C669.838 670.023 672.018 667.647 674.036 665.272C674.924 664.18 675.974 663.153 676.862 662.062H676.943V661.997C677.023 661.869 677.104 661.805 677.266 661.676L677.346 661.612H677.266V661.548C676.701 661.163 675.974 660.906 675.409 660.585C677.75 657.76 680.091 654.87 682.271 651.917C683.159 651.981 683.967 652.11 684.855 652.11H684.935V652.045C687.196 648.964 689.376 645.882 691.555 642.736V642.672C691.636 642.479 691.798 642.35 691.959 642.158L692.04 642.094H691.959C691.313 641.773 690.667 641.516 690.021 641.259C690.425 640.681 690.829 640.039 691.232 639.461C692.847 637.021 694.462 634.517 695.915 632.013C696.641 632.142 697.368 632.27 698.175 632.27H698.256V632.206C699.952 629.445 701.485 626.684 703.019 623.859V744.052C701.324 744.373 700.113 745.529 700.113 746.941V756.636C698.014 757.728 696.722 759.59 696.722 761.644C696.722 764.598 699.306 766.973 702.696 767.423V770.055H700.517V769.734ZM705.199 764.983V764.662C705.199 764.084 704.634 763.635 703.907 763.635C703.181 763.635 702.616 764.084 702.616 764.662V765.047C700.678 764.662 699.144 763.185 699.144 761.323C699.144 760.489 699.548 759.718 700.113 759.012C700.274 760.553 701.889 761.773 703.827 761.773V760.745V761.773C705.603 761.773 706.975 760.81 707.46 759.525C707.783 760.103 708.025 760.681 708.025 761.323C708.106 762.993 706.895 764.405 705.199 764.983ZM310.578 568.578C310.739 568.578 310.901 568.643 310.982 568.643C312.516 568.643 313.969 567.872 314.534 566.716L316.875 562.029L350.702 570.633L349.168 573.779C348.765 574.549 348.845 575.384 349.249 576.09C349.491 576.604 349.976 576.989 350.541 577.246L321.154 641.323L317.44 638.37C311.547 633.683 305.33 628.996 299.598 624.245C298.387 622.96 297.903 621.227 298.307 619.622C298.549 618.851 298.953 618.081 299.518 617.439C300.083 616.797 300.89 616.219 301.617 615.641L310.497 608.514L319.378 601.387L323.818 597.856C324.545 597.278 325.271 596.636 325.917 595.994C326.24 595.673 326.563 595.288 326.725 594.903C326.967 594.517 327.128 594.068 326.805 593.618L326.644 593.683L326.805 593.554C326.321 593.041 325.514 593.105 324.868 593.105C324.222 593.169 323.576 593.233 322.93 593.426C321.719 593.683 320.508 594.068 319.378 594.453L312.273 596.636L298.064 600.938L295.158 601.837L310.578 568.578Z" fill="#8C9196"/>
<path d="M1083.03 843.697L1051.46 847.485L1020.7 847.357L989.46 849.925L961.93 830.856L931.897 826.747L899.846 835.029L870.217 827.967L839.62 827.196L809.587 823.151L779.07 821.675L747.827 826.041L717.713 821.931L689.699 801.643L658.617 804.789L626.728 815.511L597.906 800.358L567.874 794.901L536.549 801.386L505.548 805.366L476.081 793.938L445.564 792.782L415.693 784.949L384.287 795.286L354.255 787.967L323.334 793.039L292.817 792.654L263.108 777.309L232.026 788.545L201.751 779.748L171.153 781.739L140.636 778.785L110.039 778.914L79.4409 788.545L48.8433 778.657L18.4878 787.646L0 786.939V1048.19H170.669L1083.03 843.697Z" fill="#8C9196"/>
<path d="M1384 777.309L1347.99 786.811L1317.15 790.471L1286.07 791.883L1256.36 803.312L1223.34 791.819L1192.99 798.625L1164.17 813.97L1134.05 820.583L1100.06 806.586L1068.9 808.256L1042.26 832.525L1011.74 836.57L981.064 840.166L946.914 829.058L916.882 835.8L886.284 840.358L859.158 858.336L827.43 858.079L798.285 867.517L768.334 873.938L734.022 865.655L705.685 877.533L675.41 883.055L646.992 894.034L617.848 902.766L582.487 893.52L557.137 912.975L523.875 910.535L494.569 918.817L467.362 932.621L440.155 945.784H407.539L380.252 958.625L352.641 970.503L318.491 967.485L289.67 976.795L258.507 981.097L227.586 986.169L201.025 999.973L170.428 1006.07L145.158 1021.93L112.623 1025.4L900.009 1232.97L1384 1227.32V777.309Z" fill="#B4B6B9"/>
<path d="M0 1000.29L24.8657 1004.47L55.3826 1006.2L86.7069 1004.85L117.466 1006.26L143.543 1024.88L177.854 1013.13L204.899 1027.97L235.659 1029.38L265.045 1035.8L291.364 1052.68L326.241 1040.49L351.349 1060.84L380.897 1066.36L413.916 1060.97L442.415 1070.02L470.268 1081L498.201 1091.4L528.557 1094.55H559.962L586.119 1110.08L620.188 1102.76L646.265 1118.43L673.23 1131.14L708.106 1122.22L737.977 1126.97L760.744 1151.18L792.068 1152.07L821.293 1158.69L849.469 1167.93L878.614 1174.61L906.951 1183.47L938.679 1183.86L966.693 1193.49L999.228 1192.4L0 1350.47V1000.29Z" fill="#B4B6B9"/>
<path d="M209.178 670.408L209.259 673.169H205.464L199.248 668.032L201.105 666.62L202.962 665.207L209.178 670.408Z" fill="#B4B6B9"/>
<path d="M207.08 597.021L207.16 599.782H203.204L196.423 594.581L198.199 593.105L199.975 591.628L207.08 597.021Z" fill="#B4B6B9"/>
<path d="M218.301 542.638L219.996 599.78H207.16L207.079 597.019L205.626 545.463L205.545 542.638H218.301Z" fill="#B4B6B9"/>
<path d="M220.239 607.871L222.096 673.168H209.259L209.178 670.407L207.483 610.76L207.402 607.871H220.239Z" fill="#B4B6B9"/>
<path d="M217.008 941.611L217.089 944.501L210.388 950.344L208.531 948.931L206.594 947.518L213.537 941.611H217.008Z" fill="#B4B6B9"/>
<path d="M219.351 1023.66L219.432 1026.75H215.638L208.049 1020.13L209.906 1018.72L211.763 1017.31L219.109 1023.66H219.351Z" fill="#B4B6B9"/>
<path d="M129.496 1020.13L121.826 1026.75H118.354L118.435 1023.66L125.782 1017.31L127.558 1018.72L129.496 1020.13Z" fill="#B4B6B9"/>
<path d="M124.003 941.611L130.866 947.518L129.009 948.931L127.152 950.344L120.693 944.757L120.774 941.611H124.003Z" fill="#B4B6B9"/>
<path d="M214.344 849.155L214.425 852.173L208.45 857.566L206.513 856.282L204.575 854.934L210.953 849.155H214.344Z" fill="#B4B6B9"/>
<path d="M216.685 930.247L216.766 933.457H213.052L205.383 926.523L207.32 925.174L209.258 923.826L216.362 930.247H216.685Z" fill="#B4B6B9"/>
<path d="M132.159 926.523L124.408 933.457H121.018L121.098 930.247L128.284 923.826L130.221 925.11L132.159 926.523Z" fill="#B4B6B9"/>
<path d="M126.587 849.155L132.884 854.934L130.946 856.282L129.089 857.566L123.357 852.43L123.438 849.155H126.587Z" fill="#B4B6B9"/>
<path d="M211.843 762.221L211.924 765.174L206.676 769.861L204.738 768.513L202.801 767.164L208.452 762.221H211.843Z" fill="#B4B6B9"/>
<path d="M214.019 837.854L214.1 841H210.386L203.443 834.772L205.381 833.423L207.238 832.075L213.777 837.854H214.019Z" fill="#B4B6B9"/>
<path d="M134.095 834.772L127.152 841H123.681L123.761 837.854L130.22 832.075L132.158 833.423L134.095 834.772Z" fill="#B4B6B9"/>
<path d="M129.091 762.221L134.661 767.164L132.804 768.513L130.867 769.861L125.861 765.431L125.942 762.221H129.091Z" fill="#B4B6B9"/>
<path d="M211.519 750.922L211.599 754.003H207.886L201.023 748.097L202.88 746.684L204.818 745.336L211.277 750.922H211.519Z" fill="#B4B6B9"/>
<path d="M209.5 681.321L209.581 684.275L203.445 689.604L201.588 688.256L199.65 686.843L206.028 681.321H209.5Z" fill="#B4B6B9"/>
<path d="M243.65 1028.8V1030.34C243.65 1031.43 242.52 1032.4 241.067 1032.4H94.9409C93.5684 1032.4 92.3574 1031.43 92.3574 1030.34V1028.8C92.3574 1027.65 93.5684 1026.75 94.9409 1026.75H105.517H118.353H121.825H215.636H219.431H232.267H241.067C242.439 1026.75 243.65 1027.65 243.65 1028.8Z" fill="#B4B6B9"/>
<path d="M237.434 933.457C240.259 933.457 242.52 935.319 242.52 937.502C242.52 939.749 240.259 941.611 237.434 941.611H229.845H217.008H213.537H124.004H120.775H107.938H101.48C98.6541 941.611 96.3936 939.813 96.3936 937.502C96.3936 935.255 98.7348 933.457 101.48 933.457H108.181H121.017H124.408H213.052H216.766H229.602H237.434Z" fill="#B4B6B9"/>
<path d="M232.267 841.001C235.093 841.001 237.353 842.863 237.353 845.046C237.353 847.293 235.012 849.155 232.267 849.155H227.181H214.344H210.954H126.588H123.439H110.603H105.517C102.691 849.155 100.431 847.357 100.431 845.046C100.431 842.799 102.691 841.001 105.517 841.001H110.845H123.682H127.072H210.389H214.102H226.939H232.267Z" fill="#B4B6B9"/>
<path d="M229.844 941.611L232.266 1026.75H219.43L219.349 1023.67L217.089 944.501L217.008 941.611H229.844Z" fill="#B4B6B9"/>
<path d="M229.282 754.003C232.107 754.003 234.449 755.801 234.449 758.048C234.449 760.295 232.188 762.157 229.282 762.157H224.68H211.844H208.453H129.173H125.944H113.107H109.232C106.407 762.157 104.065 760.359 104.065 758.048C104.065 755.801 106.326 754.003 109.232 754.003H113.43H126.267H129.738H207.968H211.682H224.519H229.282Z" fill="#B4B6B9"/>
<path d="M227.18 849.155L229.602 933.457H216.766L216.685 930.247L214.424 852.173L214.344 849.155H227.18Z" fill="#B4B6B9"/>
<path d="M226.695 673.167C229.521 673.167 231.781 674.965 231.781 677.276C231.781 679.523 229.521 681.321 226.695 681.321H222.336H209.499H206.028H131.431H128.282H115.446H111.086C108.261 681.321 106 679.459 106 677.276C106 675.029 108.261 673.167 111.086 673.167H115.688H128.524H132.077H205.463H209.257H222.094H226.695Z" fill="#B4B6B9"/>
<path d="M224.677 762.221L226.938 841.001H214.101L214.021 837.855L211.922 765.174L211.841 762.221H224.677Z" fill="#B4B6B9"/>
<path d="M224.677 599.782C227.503 599.782 229.763 601.644 229.763 603.827C229.763 606.074 227.503 607.872 224.677 607.872H220.237H207.401H203.848H133.692H130.382H117.545H113.105C110.279 607.872 108.019 606.074 108.019 603.827C108.019 601.58 110.279 599.782 113.105 599.782H117.787H130.624H134.337H203.202H207.158H219.995H224.677Z" fill="#B4B6B9"/>
<path d="M222.336 681.321L224.436 754.002H211.599L211.518 750.92L209.581 684.275L209.5 681.321H222.336Z" fill="#B4B6B9"/>
<path d="M224.114 488.963V495.576C224.114 496.667 222.984 497.566 221.531 497.566H217.09H204.254H199.572H138.053H133.613H120.776H114.56C113.188 497.566 111.977 496.667 111.977 495.576V488.963C111.977 487.871 113.188 486.908 114.56 486.908H124.813H211.358H221.612C222.903 486.908 224.114 487.871 224.114 488.963Z" fill="#B4B6B9"/>
<path d="M222.338 534.549C225.163 534.549 227.424 536.347 227.424 538.594C227.424 540.841 225.163 542.639 222.338 542.639H218.301H205.464H201.831H135.711H132.321H119.484H116.013C113.187 542.639 110.846 540.777 110.846 538.594C110.846 536.347 113.106 534.549 116.013 534.549H119.726H132.563H137.245H200.297H205.303H218.139H222.338Z" fill="#B4B6B9"/>
<path d="M217.008 497.63L218.057 534.548H205.301L205.221 532.044L204.333 500.006L204.252 497.63H217.008Z" fill="#B4B6B9"/>
<path d="M213.781 478.304V484.917C213.781 486.008 212.651 486.907 211.279 486.907H124.733C123.361 486.907 122.23 486.008 122.23 484.917V478.304C122.23 477.212 123.361 476.249 124.733 476.249H143.625H193.517H211.359C212.732 476.249 213.781 477.148 213.781 478.304Z" fill="#B4B6B9"/>
<path d="M207.4 607.871L207.481 610.76L201.507 615.704L199.65 614.291L197.874 612.879L203.848 607.871H207.4Z" fill="#B4B6B9"/>
<path d="M205.547 542.638L205.627 545.463L200.46 549.379L198.684 547.902L196.908 546.426L201.833 542.638H205.547Z" fill="#B4B6B9"/>
<path d="M205.223 532.045L205.303 534.549H200.298L193.92 531.275L195.292 529.541L196.665 527.808L204.98 532.045H205.223Z" fill="#B4B6B9"/>
<path d="M204.254 497.63L204.334 500.006L196.261 504.179L194.808 502.445L193.436 500.712L199.491 497.63H204.254Z" fill="#B4B6B9"/>
<path d="M168.973 446.138L193.435 476.25H143.623L168.973 446.138Z" fill="#B4B6B9"/>
<path d="M144.107 500.712L142.654 502.445L141.281 504.179L133.45 500.134L133.531 497.63H138.052L144.107 500.712Z" fill="#B4B6B9"/>
<path d="M142.17 529.541L143.624 531.275L137.246 534.549H132.482L132.563 532.045L140.798 527.808L142.17 529.541Z" fill="#B4B6B9"/>
<path d="M139.344 593.105L141.12 594.581L134.339 599.782H130.625L130.706 596.893L137.568 591.628L139.344 593.105Z" fill="#B4B6B9"/>
<path d="M140.636 546.426L138.86 547.902L137.084 549.379L132.159 545.655L132.24 542.638H135.711L140.636 546.426Z" fill="#B4B6B9"/>
<path d="M133.694 607.871L139.668 612.879L137.811 614.291L135.954 615.704L130.303 610.953L130.383 607.871H133.694Z" fill="#B4B6B9"/>
<path d="M138.294 668.032L132.078 673.169H128.525L128.606 670.151L134.58 665.207L136.437 666.62L138.294 668.032Z" fill="#B4B6B9"/>
<path d="M131.432 681.321L137.81 686.843L135.953 688.256L134.016 689.604L128.203 684.467L128.284 681.321H131.432Z" fill="#B4B6B9"/>
<path d="M136.518 748.097L129.656 754.003H126.185L126.265 750.922L132.724 745.336L134.581 746.684L136.518 748.097Z" fill="#B4B6B9"/>
<path d="M133.451 500.134L132.563 532.044L132.482 534.548H119.727L120.776 497.63H133.532L133.451 500.134Z" fill="#B4B6B9"/>
<path d="M132.158 545.655L130.704 596.891L130.624 599.78H117.787L119.482 542.638H132.238L132.158 545.655Z" fill="#B4B6B9"/>
<path d="M130.302 610.953L128.607 670.151L128.526 673.168H115.689L117.546 607.871H130.383L130.302 610.953Z" fill="#B4B6B9"/>
<path d="M128.203 684.467L126.266 750.92L126.185 754.002H113.349L115.448 681.321H128.284L128.203 684.467Z" fill="#B4B6B9"/>
<path d="M125.862 765.431L123.763 837.855L123.682 841.001H110.846L113.106 762.221H125.943L125.862 765.431Z" fill="#B4B6B9"/>
<path d="M123.359 852.43L121.099 930.247L121.018 933.457H108.182L110.604 849.155H123.44L123.359 852.43Z" fill="#B4B6B9"/>
<path d="M120.693 944.757L118.433 1023.67L118.352 1026.75H105.516L107.938 941.611H120.774L120.693 944.757Z" fill="#B4B6B9"/>
<path d="M167.036 451.081L169.054 426.298L171.073 451.081H167.036Z" fill="#B4B6B9"/>
<path d="M169.699 445.817L169.053 444.982L168.407 445.817L143.38 476.058L144.026 476.443C147.417 474.645 150.242 472.527 153.149 470.408C155.893 468.225 158.638 466.042 161.141 463.795C163.805 461.548 165.985 459.108 168.407 456.796C168.568 456.604 168.811 456.411 168.972 456.218C169.134 456.347 169.295 456.539 169.376 456.732C171.717 459.108 173.897 461.548 176.48 463.731C178.902 466.042 181.566 468.225 184.231 470.408C187.056 472.527 189.801 474.646 193.111 476.507L193.757 476.186L169.699 445.817Z" fill="#B4B6B9"/>
<path d="M121.746 534.548L117.709 534.484L118.759 497.63L122.795 497.694L121.746 534.548Z" fill="#B4B6B9"/>
<path d="M117.451 542.624L115.771 599.686L119.807 599.761L121.486 542.699L117.451 542.624Z" fill="#B4B6B9"/>
<path d="M115.592 607.853L113.837 673.072L117.873 673.141L119.628 607.921L115.592 607.853Z" fill="#B4B6B9"/>
<path d="M113.459 681.258L111.318 753.981L115.354 754.057L117.494 681.333L113.459 681.258Z" fill="#B4B6B9"/>
<path d="M111.122 762.134L108.98 840.963L113.016 841.032L115.158 762.204L111.122 762.134Z" fill="#B4B6B9"/>
<path d="M110.279 933.456L106.242 933.391L108.664 849.154L112.701 849.219L110.279 933.456Z" fill="#B4B6B9"/>
<path d="M105.664 941.635L103.77 1026.75L107.805 1026.81L109.7 941.691L105.664 941.635Z" fill="#B4B6B9"/>
<path d="M216.122 534.548L215.072 497.694L219.109 497.63L220.158 534.484L216.122 534.548Z" fill="#B4B6B9"/>
<path d="M220.333 542.569L216.298 542.643L217.908 599.705L221.943 599.631L220.333 542.569Z" fill="#B4B6B9"/>
<path d="M222.254 607.802L218.219 607.876L220.075 673.09L224.11 673.015L222.254 607.802Z" fill="#B4B6B9"/>
<path d="M224.449 681.243L220.413 681.317L222.483 754.041L226.518 753.966L224.449 681.243Z" fill="#B4B6B9"/>
<path d="M226.717 762.074L222.682 762.148L224.915 840.97L228.951 840.896L226.717 762.074Z" fill="#B4B6B9"/>
<path d="M227.586 933.456L225.164 849.219L229.201 849.154L231.623 933.391L227.586 933.456Z" fill="#B4B6B9"/>
<path d="M231.935 941.514L227.899 941.588L230.311 1026.7L234.347 1026.63L231.935 941.514Z" fill="#B4B6B9"/>
<path d="M124.731 487.102C123.439 487.102 122.147 486.267 121.986 485.176C121.905 484.148 121.986 483.185 121.905 482.222V479.269C121.905 478.755 121.824 478.241 121.986 477.728C122.147 477.214 122.551 476.765 123.197 476.444C123.762 476.123 124.488 476.058 125.134 476.058H126.991H130.705H138.132L167.923 475.994L197.713 476.058H205.14H208.854C210.065 476.187 211.357 475.801 212.648 476.444C213.214 476.765 213.617 477.214 213.859 477.728C214.021 478.306 213.94 478.755 213.94 479.269V482.222C213.94 483.185 213.94 484.212 213.859 485.176C213.698 486.267 212.487 487.166 211.115 487.102V486.781C212.326 486.652 213.052 485.753 212.971 485.047L212.568 482.158C212.245 480.424 212.245 477.471 211.518 477.792L197.713 478.434C187.783 478.883 177.853 478.819 167.923 479.076C157.992 478.883 148.062 478.883 138.132 478.434L124.327 477.792C124.165 477.792 123.923 477.985 123.923 477.985C123.923 477.92 123.843 478.113 123.843 478.177C123.843 478.177 123.762 478.434 123.762 478.241V478.434L123.681 479.204L123.277 482.158L122.874 485.047C122.793 485.753 123.52 486.588 124.731 486.781V487.102Z" fill="#B4B6B9"/>
<path d="M118.393 941.532L115.652 1026.64L120.898 1026.75L123.639 941.639L118.393 941.532Z" fill="#B4B6B9"/>
<path d="M121.054 849.141L118.341 933.418L123.587 933.525L126.3 849.248L121.054 849.141Z" fill="#B4B6B9"/>
<path d="M123.287 762.187L121.057 841.008L126.303 841.102L128.533 762.281L123.287 762.187Z" fill="#B4B6B9"/>
<path d="M128.847 754.066L123.6 754.002L125.699 681.257L130.946 681.321L128.847 754.066Z" fill="#B4B6B9"/>
<path d="M127.708 607.828L125.854 673.041L131.1 673.135L132.954 607.922L127.708 607.828Z" fill="#B4B6B9"/>
<path d="M129.649 542.642L128.034 599.703L133.28 599.797L134.895 542.736L129.649 542.642Z" fill="#B4B6B9"/>
<path d="M131.015 497.582L130.01 534.429L135.256 534.519L136.262 497.673L131.015 497.582Z" fill="#B4B6B9"/>
<path d="M219.722 941.511L214.476 941.607L216.898 1026.72L222.144 1026.62L219.722 941.511Z" fill="#B4B6B9"/>
<path d="M216.981 849.065L211.735 849.162L214.134 933.439L219.38 933.343L216.981 849.065Z" fill="#B4B6B9"/>
<path d="M214.486 762.071L209.24 762.168L211.483 840.989L216.73 840.893L214.486 762.071Z" fill="#B4B6B9"/>
<path d="M209.017 754.066L206.918 681.321L212.166 681.257L214.265 754.002L209.017 754.066Z" fill="#B4B6B9"/>
<path d="M210.123 607.847L204.877 607.943L206.733 673.157L211.979 673.06L210.123 607.847Z" fill="#B4B6B9"/>
<path d="M208.184 542.557L202.938 542.653L204.561 599.715L209.807 599.619L208.184 542.557Z" fill="#B4B6B9"/>
<path d="M206.898 497.541L201.652 497.638L202.696 534.481L207.942 534.385L206.898 497.541Z" fill="#B4B6B9"/>
<path d="M237.433 933.264C240.823 933.135 243.649 936.089 242.519 938.657C242.034 939.941 240.823 941.033 239.29 941.482C237.675 941.932 236.06 941.739 234.526 941.803H215.554L177.529 941.867L101.56 941.675V941.354C107.857 940.712 114.235 940.455 120.532 940.006L139.504 939.235C152.179 938.786 164.854 938.85 177.529 938.593C190.204 938.786 202.879 938.786 215.554 939.235L234.526 940.006L236.868 940.134C237.756 940.198 238.079 940.198 238.644 940.07C239.774 939.877 240.743 939.171 241.227 938.272C242.277 936.41 240.581 933.713 237.352 933.456L237.433 933.264Z" fill="#B4B6B9"/>
<path d="M101.561 941.739C98.1703 941.867 95.4254 938.978 96.4749 936.346C96.9593 935.061 98.1703 934.034 99.7042 933.585C101.319 933.135 102.934 933.392 104.467 933.328H123.44L161.465 933.264L237.434 933.392V933.649C231.137 934.098 224.759 934.291 218.462 934.676L199.49 935.254C186.815 935.575 174.14 935.575 161.465 935.768C148.79 935.575 136.115 935.639 123.44 935.318L104.467 934.74C102.853 934.74 101.238 934.484 100.189 934.74C98.9776 934.997 97.9281 935.768 97.5244 936.795C96.4749 938.785 98.4125 941.546 101.642 941.675L101.561 941.739Z" fill="#B4B6B9"/>
<path d="M232.347 840.873C235.496 840.744 238.24 843.313 237.595 845.817C237.352 847.036 236.384 848.128 235.011 848.77C233.639 849.476 232.024 849.348 230.571 849.348H212.729L177.045 849.412L105.597 849.283V848.962C111.571 848.385 117.464 848.064 123.439 847.614L141.281 846.844C153.229 846.394 165.097 846.459 176.964 846.202C188.913 846.394 200.781 846.394 212.648 846.844L230.49 847.614C232.186 847.678 233.074 847.871 234.042 847.55C235.011 847.229 235.899 846.458 236.141 845.624C236.868 843.826 235.173 841.451 232.186 841.13L232.347 840.873Z" fill="#B4B6B9"/>
<path d="M105.597 849.283C102.449 849.347 99.7844 846.843 100.35 844.339C100.592 843.119 101.561 842.027 102.852 841.385C104.225 840.679 105.839 840.807 107.293 840.807H125.134L160.818 840.743L232.267 840.872V841.128C226.293 841.578 220.399 841.771 214.425 842.092L196.583 842.669C184.634 842.99 172.767 842.99 160.899 843.119C149.031 842.99 137.083 842.99 125.215 842.669L107.373 842.092C105.759 842.027 104.628 841.835 103.579 842.284C102.529 842.669 101.641 843.504 101.399 844.403C100.672 846.393 102.61 848.769 105.597 848.962V849.283Z" fill="#B4B6B9"/>
<path d="M229.28 753.875C232.267 753.811 234.931 756.123 234.608 758.498C234.447 760.938 231.298 762.736 228.392 762.415L211.357 762.479L177.288 762.543L109.23 762.351V762.03C114.882 761.388 120.614 761.131 126.265 760.681L143.3 759.911C154.683 759.461 165.986 759.526 177.369 759.269C188.752 759.461 200.055 759.461 211.438 759.911L228.473 760.681C229.28 760.746 229.764 760.81 230.168 760.746C230.652 760.746 231.137 760.617 231.54 760.36C232.429 759.975 233.155 759.205 233.317 758.37C233.801 756.572 232.106 754.389 229.28 754.132V753.875Z" fill="#B4B6B9"/>
<path d="M109.232 762.285C106.245 762.349 103.58 760.102 103.984 757.726C104.145 755.286 107.294 753.553 110.2 753.874L127.235 753.809L161.304 753.745L229.362 753.874V754.13C223.711 754.58 217.979 754.772 212.327 755.093L195.293 755.671C183.909 755.992 172.607 755.992 161.223 756.121C149.84 755.992 138.538 755.992 127.154 755.671L110.12 755.093C109.312 755.029 108.828 755.029 108.263 755.093C107.698 755.158 107.213 755.286 106.729 755.543C105.76 755.992 105.034 756.827 104.872 757.726C104.388 759.652 106.325 761.835 109.151 762.028L109.232 762.285Z" fill="#B4B6B9"/>
<path d="M226.777 672.976C229.683 672.912 232.267 675.031 232.105 677.342C232.105 679.653 229.28 681.644 226.373 681.451L209.904 681.58L176.965 681.644L111.087 681.515V681.194C116.577 680.617 122.067 680.296 127.556 679.846L144.026 679.076C155.006 678.626 165.985 678.69 176.965 678.434C187.944 678.626 198.924 678.626 209.904 679.076L226.373 679.846C228.392 680.167 230.41 679.14 230.733 677.342C231.136 675.673 229.441 673.618 226.696 673.297L226.777 672.976Z" fill="#B4B6B9"/>
<path d="M111.167 681.45C108.26 681.514 105.677 679.395 105.919 677.084C105.919 674.772 108.664 672.846 111.57 673.039H128.04L160.979 672.975L226.776 673.103V673.36C221.286 673.809 215.796 674.002 210.306 674.323L193.837 674.901C182.857 675.222 171.878 675.222 160.898 675.35C149.918 675.158 138.939 675.222 127.959 674.901L111.49 674.323C109.31 674.002 107.13 675.286 106.807 677.148C106.484 678.946 108.341 681.065 111.086 681.193L111.167 681.45Z" fill="#B4B6B9"/>
<path d="M224.679 599.588C227.505 599.524 230.088 601.515 230.008 603.762C230.169 606.009 227.666 608.063 224.841 608.128L208.856 608.192L176.966 608.256L113.188 608.063V607.742C118.516 607.1 123.844 606.843 129.173 606.394L145.158 605.624C155.814 605.174 166.39 605.238 177.047 604.982C187.704 605.174 198.28 605.174 208.936 605.624L224.841 606.394C226.536 606.651 228.554 605.495 228.797 603.762C229.039 602.092 227.424 600.166 224.76 599.909L224.679 599.588Z" fill="#B4B6B9"/>
<path d="M113.187 608C110.442 608.064 107.858 606.074 107.939 603.89C107.778 601.643 110.28 599.589 113.106 599.589H129.091L160.98 599.524L224.759 599.653V599.91C219.431 600.359 214.102 600.552 208.774 600.937L192.789 601.515C182.132 601.836 171.476 601.836 160.9 601.964C150.243 601.772 139.586 601.836 129.01 601.515L113.106 600.937C111.168 600.744 109.069 602.157 108.908 603.955C108.666 605.752 110.522 607.679 113.187 607.871V608Z" fill="#B4B6B9"/>
<path d="M222.415 534.354C225.08 534.29 227.582 536.088 227.744 538.271C228.067 540.39 225.968 542.508 223.223 542.83C218.056 542.958 212.97 542.894 207.884 542.958L177.286 543.022L116.01 542.83V542.508C121.096 541.866 126.182 541.61 131.349 541.16L146.688 540.39C156.86 539.94 167.114 540.004 177.286 539.748C187.458 539.94 197.711 539.94 207.884 540.39L222.9 541.096C224.514 541.16 226.371 539.94 226.371 538.271C226.533 536.666 224.918 534.868 222.335 534.611L222.415 534.354Z" fill="#B4B6B9"/>
<path d="M116.012 542.766C113.348 542.83 110.926 541.033 110.764 538.914C110.441 536.795 112.54 534.676 115.205 534.419C120.371 534.291 125.458 534.355 130.544 534.355L161.141 534.291L222.418 534.419V534.676C217.331 535.126 212.245 535.318 207.078 535.639L191.739 536.217C181.567 536.538 171.314 536.538 161.141 536.667C150.888 536.538 140.716 536.538 130.544 536.217L115.447 535.704C113.59 535.704 111.733 537.116 111.733 538.914C111.652 540.647 113.509 542.381 116.012 542.638V542.766Z" fill="#B4B6B9"/>
<path d="M207.014 947.841L126.102 1017.58L129.068 1019.76L209.981 950.018L207.014 947.841Z" fill="#B4B6B9"/>
<path d="M204.976 855.164L128.723 924.098L131.753 926.218L208.007 857.284L204.976 855.164Z" fill="#B4B6B9"/>
<path d="M203.102 767.496L130.746 832.487L133.768 834.615L206.124 769.624L203.102 767.496Z" fill="#B4B6B9"/>
<path d="M136.114 747.774L133.127 745.591L200.135 687.164L203.122 689.283L136.114 747.774Z" fill="#B4B6B9"/>
<path d="M198.234 613.089L135.066 665.525L137.981 667.746L201.149 615.31L198.234 613.089Z" fill="#B4B6B9"/>
<path d="M197.265 546.751L137.951 591.994L140.745 594.311L200.059 549.068L197.265 546.751Z" fill="#B4B6B9"/>
<path d="M193.796 501.088L141.196 528.152L143.389 530.848L195.989 503.784L193.796 501.088Z" fill="#B4B6B9"/>
<path d="M130.577 947.867L127.608 950.043L208.485 1019.82L211.454 1017.64L130.577 947.867Z" fill="#B4B6B9"/>
<path d="M205.868 926.201L129.495 857.308L132.563 855.189L208.855 924.082L205.868 926.201Z" fill="#B4B6B9"/>
<path d="M134.384 767.482L131.368 769.615L203.91 834.476L206.926 832.343L134.384 767.482Z" fill="#B4B6B9"/>
<path d="M201.51 747.774L134.502 689.283L137.489 687.164L204.416 745.591L201.51 747.774Z" fill="#B4B6B9"/>
<path d="M139.307 613.131L136.397 615.356L199.693 667.691L202.602 665.465L139.307 613.131Z" fill="#B4B6B9"/>
<path d="M140.338 546.68L137.545 548.997L196.875 594.227L199.668 591.909L140.338 546.68Z" fill="#B4B6B9"/>
<path d="M143.817 501.14L141.626 503.836L194.306 530.92L196.497 528.224L143.817 501.14Z" fill="#B4B6B9"/>
<path d="M221.611 486.779C222.984 486.779 224.356 487.742 224.356 488.834V491.916V494.998C224.518 495.961 223.952 497.309 222.58 497.694C217.332 498.015 212.246 497.823 207.079 497.887L176.239 497.951L114.56 497.823V497.502C119.726 496.86 124.813 496.603 129.98 496.153L145.399 495.383C155.653 494.933 165.986 494.998 176.239 494.741C186.492 494.933 196.826 494.933 207.079 495.383L221.773 496.089C221.934 496.089 222.176 496.025 222.338 495.897C222.338 495.832 222.418 495.961 222.499 495.64C222.58 495.64 222.58 495.19 222.58 494.998L222.984 491.916L223.387 488.898C223.549 488.128 222.822 487.229 221.53 487.1L221.611 486.779Z" fill="#B4B6B9"/>
<path d="M114.478 497.823C113.105 497.823 111.814 496.86 111.733 495.769V492.687V489.605C111.571 488.577 112.137 487.293 113.509 486.908C118.757 486.587 123.843 486.78 129.01 486.716L159.85 486.651L221.529 486.78V487.101C216.362 487.743 211.276 488 206.109 488.449L190.689 489.22C180.436 489.669 170.103 489.605 159.85 489.862C149.596 489.669 139.263 489.669 129.01 489.22L114.316 488.513C114.155 488.513 113.913 488.577 113.751 488.706C113.67 488.77 113.67 488.642 113.59 488.963C113.509 488.963 113.509 489.412 113.509 489.605L113.105 492.687L112.702 495.704C112.54 496.475 113.267 497.374 114.558 497.502L114.478 497.823Z" fill="#B4B6B9"/>
<path d="M241.148 1026.62C241.956 1026.62 242.844 1026.94 243.328 1027.52C243.893 1028.03 243.812 1028.8 243.812 1029.44C243.812 1030.09 243.893 1030.79 243.409 1031.37C243.005 1031.95 242.198 1032.33 241.31 1032.4L231.541 1032.46H212.004H173.01L94.9414 1032.4V1032.21L114.479 1031.56L134.016 1031.18C147.014 1030.92 160.012 1030.99 173.01 1030.86C186.008 1030.99 199.006 1030.92 212.004 1031.18L231.541 1031.56L241.229 1031.88C241.875 1031.88 242.521 1031.63 242.924 1031.11C243.328 1030.73 243.328 1030.02 243.328 1029.38C243.328 1028.74 243.409 1028.1 243.005 1027.58C242.601 1027.07 241.875 1026.75 241.067 1026.68L241.148 1026.62Z" fill="#B4B6B9"/>
<path d="M94.9407 1032.4C94.1334 1032.4 93.2453 1032.01 92.7609 1031.5C92.1958 1030.99 92.2765 1030.21 92.2765 1029.57C92.2765 1028.93 92.1958 1028.22 92.6802 1027.65C93.0839 1027.07 93.8912 1026.68 94.7792 1026.62H104.548H124.085H163.079L241.148 1026.68V1026.81L221.61 1027.45L202.073 1027.84C189.075 1028.1 176.077 1028.03 163.079 1028.16C150.081 1028.03 137.083 1028.1 124.085 1027.84L104.548 1027.45L94.86 1027.13C94.2141 1027.13 93.5683 1027.39 93.1646 1027.9C92.7609 1028.29 92.7609 1028.99 92.7609 1029.64C92.6802 1030.28 92.6802 1030.92 93.0839 1031.43C93.4875 1031.95 94.2141 1032.27 95.0214 1032.33L94.9407 1032.4Z" fill="#B4B6B9"/>
<path d="M0 1219.08V1422H1384V1103L1352.19 1109.1L1319.98 1105.11L1293.42 1118.47L1261.37 1114.95L1229.88 1113.36L1202.19 1122.84L1172.24 1125.84L1138.33 1117.45L1108.14 1119.53L1080.61 1129.04L1048.23 1125.45L1016.99 1124.81L989.137 1133.17L959.104 1135.95L928.829 1137.89L897.909 1138.21L868.522 1142.26L836.875 1140.85L809.668 1150.47L777.698 1148.28L747.423 1150.15L716.745 1151.24L686.954 1154.31L656.599 1156.14L626.163 1157.69L597.422 1163.3L569.085 1169.61L539.375 1172.71L509.746 1176.2L475.758 1169.78L448.228 1177.85L417.226 1178.31L390.423 1187.75L359.26 1187.79L329.551 1190.96L296.289 1186.84L264.884 1186.42L239.372 1198.4L205.384 1192.76L176.643 1197.97L148.064 1203.37L121.18 1211.96L87.6757 1207.59L57.2395 1209.32L28.095 1213.62L0 1219.08Z" fill="#4A5568"/>
<path d="M1196.22 460.712C1196.22 460.263 1195.89 459.813 1195.41 459.557C1194.92 459.3 1194.28 459.3 1193.79 459.3H1192.18H1189.51V443.441V439.46V437.47C1189.51 437.149 1189.6 436.828 1189.43 436.443C1189.35 436.057 1189.03 435.736 1188.63 435.544C1188.22 435.351 1187.74 435.287 1187.34 435.287H1186.04H1183.54H1183.46V426.427V425.271C1183.46 424.886 1183.38 424.436 1183.06 424.115C1182.73 423.794 1182.17 423.601 1181.68 423.601H1180.23H1179.5L1179.58 412.109V412.044L1179.5 411.98C1169.33 403.89 1159.32 395.736 1149.07 387.711L1118.63 363.698V355.929L1121.21 357.984L1123.31 359.589C1124.04 360.102 1124.77 360.68 1125.74 360.873V360.809V360.937C1125.98 361.001 1126.46 360.873 1126.54 360.616C1126.62 360.359 1126.62 360.167 1126.62 359.91C1126.54 359.46 1126.38 359.011 1126.22 358.626C1125.9 357.791 1125.41 356.956 1125.01 356.186L1122.51 351.306L1117.58 341.611L1119.68 339.942L1124.44 336.154C1126.06 334.998 1127.43 333.329 1129.69 333.2C1130.74 333.136 1131.87 333.265 1132.84 333.778C1133.73 334.228 1134.46 334.934 1135.26 335.576L1140.03 339.364L1144.79 343.152L1147.13 345.014C1147.94 345.592 1148.74 346.298 1149.87 346.555V346.491V346.619C1150.12 346.619 1150.36 346.619 1150.52 346.491C1150.68 346.362 1150.76 346.17 1150.76 346.041C1150.84 345.72 1150.76 345.399 1150.68 345.078C1150.52 344.5 1150.28 343.923 1149.96 343.345L1148.26 340.006L1144.87 333.329L1138.01 319.974L1139.78 318.561C1140.11 318.305 1140.43 318.048 1140.67 317.727C1140.75 317.598 1140.67 317.47 1140.67 317.277C1140.67 317.213 1140.67 317.213 1140.67 317.149C1140.67 316.956 1140.75 316.764 1140.67 316.571C1140.43 316.186 1140.11 315.993 1139.78 315.736L1138.81 314.966L1136.96 313.425L1135.02 311.948L1134.05 311.178C1133.73 310.921 1133.49 310.664 1133 310.472C1132.76 310.407 1132.52 310.472 1132.28 310.472C1132.19 310.472 1132.19 310.472 1132.11 310.472C1131.95 310.472 1131.71 310.407 1131.55 310.472C1131.06 310.6 1130.74 310.921 1130.5 311.178L1128.72 312.59L1128.64 312.526L1128.48 312.655L1111.37 326.202L1109.75 324.918C1108.78 324.147 1107.17 324.147 1106.12 324.918L1103.78 326.78L1103.94 326.908L1089 322.35L1078.35 299.107C1079.23 298.594 1079.72 297.63 1079.23 296.732L1077.78 293.842L1078.1 293.778L1077.86 293.136H1077.94L1075.84 288.706L1075.76 288.642H1075.68L1059.29 288.577C1058 281.386 1055.98 274.26 1053.48 267.326C1052.19 263.794 1050.74 260.327 1049.12 256.924C1047.51 253.521 1045.81 250.118 1043.87 246.78L1043.79 246.651L1043.63 246.716L1035.88 248.899L1035.96 249.027H1035.88L1037.17 252.109L976.3 268.738C976.058 268.224 975.896 267.711 975.654 267.197L975.573 267.133L975.492 267.197L965.805 269.894V269.958H965.724L966.37 271.499L946.832 276.828C946.59 276.314 946.429 275.801 946.187 275.287L946.106 275.159H945.944L936.256 277.855V277.919H936.176L936.822 279.46L837.359 306.94L811.847 278.176L811.767 278.048L811.605 278.112L798.446 281.772L798.527 281.9H798.446C798.284 284.854 798.527 287.743 798.769 290.696C798.849 291.274 798.93 291.852 799.011 292.43C799.172 293.842 799.415 295.319 799.657 296.988C799.818 297.759 799.818 298.465 799.98 299.236C799.98 299.3 799.98 299.364 799.98 299.492V299.557H800.06C800.626 299.557 801.11 299.492 801.675 299.428C802.079 301.675 802.563 303.923 803.209 306.106C802.725 306.362 802.24 306.555 801.756 306.812H801.675V306.876C802.321 309.316 803.048 311.756 803.855 314.195V314.26H803.936C804.42 314.195 804.985 314.131 805.469 314.067C805.631 314.581 805.792 315.094 805.954 315.608C806.519 317.342 807.165 319.011 807.811 320.744C807.326 320.937 806.923 321.13 806.438 321.322H806.358V321.386C807.326 323.762 808.295 326.138 809.425 328.449V328.513H809.506C809.991 328.449 810.475 328.385 810.959 328.321C811.444 329.476 812.009 330.568 812.574 331.724H812.332V417.309C811.202 417.566 810.394 418.272 810.394 419.236V425.977C809.264 426.748 808.457 427.839 808.457 429.059C808.457 430.921 810.071 432.462 812.09 432.847V434.709H810.475C809.022 434.709 807.891 435.608 807.891 436.764V437.47C807.891 437.919 808.134 438.369 808.457 438.69H807.649H804.985C804.016 438.69 803.209 439.396 803.209 440.102H803.29C803.29 440.488 803.209 440.873 803.451 441.258C803.532 441.386 803.693 441.451 803.774 441.515C803.855 441.579 803.936 441.643 804.097 441.707C804.258 441.772 804.339 441.964 804.501 442.028C804.824 442.093 805.066 442.093 805.389 442.093C805.308 444.532 805.308 446.972 805.227 449.412C805.308 451.788 805.227 454.227 805.389 456.667C804.985 456.667 804.581 456.667 804.259 456.86C803.693 457.117 803.29 457.566 803.29 458.08C803.29 458.529 803.209 459.043 803.532 459.492C803.693 459.685 803.936 459.878 804.178 460.006H800.706H794.167H790.938C790.453 460.006 789.807 460.006 789.323 460.263C788.839 460.52 788.516 460.969 788.516 461.483H788.596V464.051V465.335C788.596 465.72 788.516 466.234 788.919 466.619C789.242 467.004 789.807 467.261 790.373 467.261H791.987H795.216H808.053H833.807H885.233H988.168L1193.96 467.197V467.261C1194.52 467.261 1195.09 467.004 1195.41 466.619C1195.81 466.234 1195.73 465.72 1195.73 465.335V462.767L1196.22 460.712ZM924.066 436.443L926.568 436.828C926.568 437.02 926.568 437.277 926.568 437.47V439.46V443.441V459.235H918.657L924.066 436.443ZM939.97 369.669L943.119 370.118L928.183 432.847L925.035 432.398L939.97 369.669ZM954.663 308.16L957.812 308.61L944.087 366.138L940.939 365.688L954.663 308.16ZM1106.6 402.671L1107.09 402.349L1106.84 402.542L1133.32 423.601L1106.6 423.666V419.043C1106.68 413.585 1106.6 408.128 1106.6 402.671ZM976.542 310.985L1025.71 435.223L977.592 435.287H946.913L976.542 310.985ZM1109.11 348.289C1110.48 349.252 1111.77 350.407 1113.14 351.435L1117.18 354.709L1118.07 355.415H1100.14L1109.11 348.289ZM960.395 297.759L958.781 304.629L955.632 304.179L956.843 298.979L956.278 298.915L960.395 297.759ZM1060.83 355.415H1059.45V355.48L1059.37 355.287L1035.32 363.184L1035.07 363.248V363.441L1034.99 378.915C1034.91 384.051 1034.99 389.252 1034.99 394.388L1035.15 422.446L983.243 291.274L986.149 290.439V290.375H986.23C985.988 289.733 985.665 289.155 985.423 288.513L1046.21 271.756L1053.96 289.541L1043.63 297.181L1043.55 297.245V297.309L1045.33 300.969L1045.49 300.905L1045.33 300.969L1046.78 303.923C1047.18 304.693 1048.07 305.207 1049.12 305.207C1049.2 305.207 1049.36 305.142 1049.44 305.142L1069.3 348.417L1069.63 348.289L1060.83 355.415ZM814.754 334.163C814.512 334.228 814.35 334.356 814.108 334.42V332.943C814.35 333.329 814.592 333.714 814.754 334.163ZM954.986 299.236L953.856 303.923L949.416 303.281L949.981 300.777L949.497 300.712L954.986 299.236ZM952.968 307.903L951.919 312.398L947.559 311.627L948.609 307.197L952.968 307.903ZM947.155 312.976L951.515 313.746L949.254 323.184L944.895 322.414L947.155 312.976ZM944.572 323.762L948.931 324.533L946.671 333.971L942.311 333.2L944.572 323.762ZM942.069 334.549L946.429 335.319L944.168 344.757L939.809 343.987L942.069 334.549ZM939.486 345.335L943.845 346.106L941.585 355.544L937.225 354.773L939.486 345.335ZM936.902 356.122L941.262 356.892L939.243 365.496L934.803 364.854L936.902 356.122ZM938.275 369.476L936.418 377.117L932.058 376.346L933.834 368.834L938.275 369.476ZM931.735 377.695L936.095 378.465L933.834 387.903L929.475 387.133L931.735 377.695ZM929.233 388.481L933.592 389.252L931.332 398.69L926.972 397.919L929.233 388.481ZM926.649 399.268L931.009 400.038L928.748 409.476L924.389 408.706L926.649 399.268ZM924.066 410.054L928.425 410.825L926.165 420.263L921.805 419.492L924.066 410.054ZM921.482 420.841L925.842 421.611L923.339 432.269L918.899 431.627L921.482 420.841ZM922.37 436.186L921.079 441.772L916.719 441.001L918.011 435.544L922.37 436.186ZM916.396 442.414L920.756 443.184L918.495 452.622L914.136 451.852L916.396 442.414ZM913.813 453.136L918.172 453.906L916.881 459.235H912.279L913.813 453.136ZM1125.9 360.68L1125.82 360.616C1125.82 360.616 1125.9 360.616 1125.9 360.68C1125.9 360.616 1125.9 360.616 1125.9 360.68ZM1150.04 346.17C1149.96 346.17 1149.96 346.106 1149.87 346.106C1149.96 346.041 1150.04 346.106 1150.04 346.17C1150.04 346.106 1150.12 346.106 1150.04 346.17ZM1085.69 320.937L1076.17 317.984L1071.4 316.507C1070.6 316.25 1069.79 315.993 1068.98 315.801C1068.58 315.736 1068.17 315.608 1067.69 315.608C1067.29 315.608 1066.72 315.544 1066.4 315.865L1066.48 315.929L1066.4 315.865C1066.16 316.122 1066.32 316.507 1066.48 316.699C1066.64 316.956 1066.8 317.213 1067.04 317.406C1067.45 317.855 1067.93 318.24 1068.42 318.69L1071.4 321.065L1077.38 325.817L1083.35 330.568C1083.84 330.953 1084.4 331.338 1084.8 331.788C1085.21 332.237 1085.45 332.751 1085.61 333.264C1085.93 334.356 1085.61 335.512 1084.8 336.346C1080.93 339.557 1076.81 342.638 1072.86 345.785L1070.35 347.775L1050.57 304.693C1050.9 304.5 1051.3 304.308 1051.46 303.987C1051.7 303.473 1051.7 302.96 1051.46 302.446L1050.41 300.327L1073.1 294.549L1074.71 297.695C1075.12 298.465 1076 298.979 1077.05 298.979C1077.13 298.979 1077.22 298.915 1077.38 298.915L1087.63 321.258L1085.69 320.937ZM810.717 428.417C810.717 427.967 810.879 427.582 811.121 427.197C811.444 428.032 812.332 428.674 813.543 428.674V428.032V428.674C814.834 428.674 815.965 427.839 816.045 426.812C816.449 427.261 816.691 427.775 816.691 428.353C816.691 429.573 815.723 430.6 814.35 430.857V430.6C814.35 430.215 813.946 429.894 813.543 429.894C813.058 429.894 812.655 430.215 812.655 430.6V430.793C811.524 430.536 810.717 429.573 810.717 428.417ZM814.35 432.333C816.611 432.077 818.387 430.471 818.387 428.481C818.387 427.069 817.499 425.849 816.126 425.078V418.593C816.126 417.63 815.319 416.86 814.189 416.667V336.025C815.238 337.887 816.288 339.749 817.337 341.611V341.675H817.418C817.902 341.611 818.467 341.547 818.952 341.483C820.001 343.152 821.051 344.821 822.1 346.491C822.343 346.876 822.666 347.325 822.908 347.711C822.504 347.903 822.02 348.096 821.616 348.289H821.535V348.353C821.616 348.481 821.697 348.545 821.778 348.674C823.231 350.793 824.684 352.847 826.218 354.902V354.966H826.299C826.864 354.966 827.429 354.902 827.994 354.838C829.447 356.828 830.981 358.754 832.596 360.68C832.192 360.873 831.708 361.065 831.304 361.322H831.223V361.386C831.304 361.451 831.385 361.515 831.385 361.579V361.643H831.465C836.794 368.064 842.607 374.292 848.984 380.134L849.065 380.263L855.685 378.465L855.847 378.401V378.272L850.276 325.624L946.025 299.492L946.832 301.29L946.913 301.419L947.075 301.354L948.286 301.033L947.801 303.024L946.509 302.831C945.137 302.638 943.765 303.345 943.522 304.5L944.41 304.629L943.522 304.5C943.361 305.014 943.522 305.592 943.926 306.041C944.33 306.491 944.895 306.812 945.541 306.876L946.752 307.069L933.027 364.597L931.655 364.404C930.282 364.211 928.91 364.982 928.668 366.073L929.556 366.202L928.668 366.073C928.506 366.587 928.668 367.165 929.071 367.614C929.475 368.064 930.04 368.321 930.686 368.449L932.058 368.642L917.123 431.37L915.104 431.113C913.732 430.921 912.36 431.691 912.117 432.783C911.956 433.297 912.117 433.874 912.521 434.324C912.925 434.773 913.49 435.094 914.136 435.158L916.073 435.415L910.341 459.364H892.257H840.104H822.1C822.343 459.236 822.585 459.043 822.746 458.85C823.069 458.401 822.989 457.887 822.989 457.438C822.989 456.924 822.585 456.475 822.02 456.218C821.616 456.025 821.132 456.025 820.647 456.025C820.728 453.585 820.728 451.21 820.809 448.77C820.728 446.33 820.809 443.89 820.647 441.451C820.97 441.451 821.374 441.451 821.697 441.386C821.858 441.322 821.939 441.194 822.02 441.13C822.181 441.065 822.262 440.937 822.423 440.873C822.504 440.809 822.666 440.744 822.746 440.616C822.908 440.231 822.827 439.845 822.908 439.46H822.989C822.989 438.69 822.181 438.048 821.212 438.048H818.548H817.499C817.822 437.727 818.064 437.277 818.064 436.828V436.121C818.064 435.03 816.934 434.067 815.48 434.067H814.027V432.333H814.35ZM810.152 436.121C810.152 435.736 810.556 435.415 811.04 435.415H812.655C812.655 435.8 813.058 436.121 813.543 436.121C814.027 436.121 814.35 435.8 814.35 435.415H815.803C816.288 435.415 816.691 435.736 816.691 436.121V436.828C816.691 437.213 816.288 437.534 815.803 437.534H811.04C810.556 437.534 810.152 437.213 810.152 436.828V436.121Z" fill="#CFCFCF"/>
<path d="M1282.36 811.659C1281.96 811.209 1281.23 810.888 1280.5 810.888V810.953V810.888H1274.69L1272.59 738.079H1274.85C1276.22 738.015 1277.6 738.272 1278.97 737.823C1280.34 737.437 1281.39 736.539 1281.71 735.447C1282.6 733.2 1280.26 730.696 1277.35 730.76V730.888V730.824H1272.35L1270.25 658.786H1271.38C1272.59 658.786 1274.04 658.85 1275.17 658.272C1276.3 657.758 1277.19 656.795 1277.35 655.704C1277.92 653.585 1275.58 651.402 1272.83 651.466V651.595V651.466H1270.01L1268.07 584.051H1269.52C1272.03 584.372 1274.77 582.831 1274.85 580.712C1275.17 578.657 1272.83 576.667 1270.25 576.731V576.86V576.795H1267.83L1266.05 514.645H1267.75C1270.25 514.837 1272.67 513.104 1272.67 511.113C1272.83 509.123 1270.57 507.261 1268.07 507.325V507.453V507.325H1265.81L1264.19 451.595H1266.37C1268.8 451.595 1270.98 449.797 1270.81 447.871C1270.81 445.945 1268.63 444.211 1266.21 444.275V444.404V444.339H1263.95L1262.58 395.543C1263.39 395.543 1264.19 395.543 1265 395.543C1267.34 395.287 1269.12 393.489 1268.88 391.627C1268.72 389.765 1266.62 388.224 1264.27 388.288V388.417V388.288H1262.42L1261.53 356.827C1262.5 356.827 1263.47 356.827 1264.52 356.763C1265.73 356.442 1266.21 355.286 1266.05 354.452V351.819V349.187C1266.05 348.224 1264.84 347.389 1263.71 347.453V347.582V347.453H1255.88C1256.61 347.197 1257.17 346.747 1257.25 346.105C1257.33 345.206 1257.25 344.372 1257.25 343.537V340.969C1257.25 340.519 1257.33 340.134 1257.17 339.685C1257.01 339.235 1256.69 338.85 1256.12 338.593C1254.99 338.08 1253.94 338.336 1252.89 338.272H1249.66H1243.28H1239.73L1219.95 313.489L1218.5 295.64L1217.05 313.425L1196.46 338.272H1192.1H1185.72H1182.49H1180.88C1180.39 338.272 1179.67 338.336 1179.26 338.593C1178.78 338.85 1178.38 339.235 1178.21 339.685C1178.05 340.134 1178.13 340.584 1178.13 340.969V343.537C1178.13 344.372 1178.13 345.206 1178.21 346.105C1178.29 346.683 1178.78 347.132 1179.42 347.453C1176.6 347.453 1173.77 347.453 1170.87 347.646C1169.66 347.967 1169.17 349.123 1169.33 349.957V352.59V355.222C1169.33 356.185 1170.54 357.02 1171.67 357.02V356.892V357.02H1175.31L1174.42 388.417C1173.69 388.417 1172.97 388.417 1172.24 388.417C1169.98 388.673 1168.2 390.471 1168.45 392.269C1168.61 394.067 1170.71 395.608 1172.97 395.608V395.479V395.608H1174.26L1172.89 444.339H1170.46C1168.04 444.339 1165.94 446.073 1166.02 447.999C1166.02 449.925 1168.2 451.595 1170.54 451.531V451.402V451.531H1172.64L1171.03 507.261H1169.17C1166.75 507.068 1164.33 508.802 1164.33 510.792C1164.17 512.783 1166.35 514.58 1168.85 514.516V514.388V514.516H1170.87L1169.09 576.667H1168.04C1165.54 576.346 1162.87 577.887 1162.71 580.006C1162.39 582.06 1164.65 583.986 1167.23 583.922V583.858V583.986H1168.85L1166.91 651.402H1165.54C1164.33 651.402 1162.87 651.338 1161.74 651.916C1160.61 652.429 1159.81 653.392 1159.56 654.42C1159 656.538 1161.34 658.722 1164 658.657V658.529V658.657H1166.67L1164.57 730.696H1163.04C1161.66 730.76 1160.29 730.567 1158.92 730.953C1157.63 731.338 1156.58 732.237 1156.17 733.328C1155.85 734.163 1156.01 734.933 1156.42 735.704V735.768C1157.14 737.052 1158.68 738.015 1160.45 737.951V737.887V737.951H1164.25L1162.15 810.824H1154.64C1153.91 810.888 1153.19 811.209 1152.86 811.723C1152.46 812.237 1152.54 812.815 1152.54 813.392C1152.54 813.906 1152.54 814.548 1152.94 815.062C1153.35 815.511 1154.07 815.832 1154.8 815.832V815.768V815.832L1221.81 815.896H1255.31H1272.11H1280.5C1281.23 815.832 1281.96 815.511 1282.28 814.998C1282.68 814.484 1282.6 813.906 1282.6 813.328C1282.76 812.815 1282.76 812.173 1282.36 811.659ZM1254.99 803.184L1220.76 773.649L1253.78 745.142L1254.1 745.399L1257.65 742.317L1259.51 806.587L1255.31 802.927L1254.99 803.184ZM1250.79 743.023L1251.2 743.28L1218.34 771.595L1185.48 743.28L1182.98 745.142L1216 773.649L1181.77 803.184L1184.27 805.046L1218.34 775.64L1252.41 805.046L1252 805.303L1258.46 810.888L1213.41 810.824H1179.91H1178.13L1184.59 805.238L1182.98 804.018L1181.36 802.863L1177.41 806.266L1179.26 742.51L1182.57 745.399L1184.19 744.243L1185.8 743.023L1180.07 738.079L1225.85 738.144L1256.44 738.079L1250.79 743.023ZM1252.73 722.863L1220.68 693.906L1252.08 665.592L1252.41 665.848L1255.39 663.152L1257.25 726.394L1253.13 722.67L1252.73 722.863ZM1249.1 663.473L1249.5 663.73L1218.42 691.852L1187.26 663.73L1184.67 665.527L1216.08 693.906L1184.03 722.863L1186.61 724.661L1218.42 695.961L1250.23 724.661L1249.82 724.917L1256.28 730.696L1212.12 730.632L1180.56 730.696L1187.01 724.917L1185.32 723.697L1183.62 722.542L1179.83 725.945L1181.6 663.28L1184.27 665.72L1185.88 664.564L1187.58 663.409L1182.33 658.657L1225.44 658.722L1254.34 658.657L1249.1 663.473ZM1251.03 644.083L1220.68 616.924L1250.55 590.214L1250.87 590.471L1253.21 588.352L1254.91 647.036L1251.36 643.89L1251.03 644.083ZM1247.56 588.16L1247.89 588.417L1218.34 614.869L1188.79 588.417L1186.21 590.279L1216.08 616.988L1185.72 644.147L1188.31 646.009L1218.42 619.107L1248.53 646.009L1248.13 646.266L1253.94 651.466L1211.56 651.402L1182.73 651.466L1188.55 646.266L1186.93 645.11L1185.24 643.954L1182.01 646.844L1183.7 588.738L1185.8 590.6L1187.5 589.444L1189.11 588.288L1184.51 584.179L1225.68 584.307L1252.17 584.243L1247.56 588.16ZM1248.94 569.604L1220.68 544.949L1247.81 521.322L1248.13 521.579L1251.28 518.882L1252.81 572.494L1249.26 569.412L1248.94 569.604ZM1244.9 519.203L1245.3 519.46L1218.42 542.895L1191.53 519.396L1188.95 521.258L1216.08 544.949L1187.82 569.604L1190.4 571.466L1218.5 547.004L1246.51 571.466L1246.11 571.723L1251.84 576.731L1211.96 576.667L1185 576.731L1190.73 571.787L1189.11 570.632L1187.5 569.476L1184.35 572.237L1185.88 519.203L1188.71 521.643L1190.32 520.487L1191.94 519.331L1186.69 514.773L1225.6 514.837L1250.31 514.773L1244.9 519.203ZM1190.57 501.803L1188.95 500.584L1186.21 502.895L1187.58 455.896L1190.24 458.08L1191.86 456.86L1193.47 455.64L1188.55 451.595L1225.52 451.659L1248.29 451.595L1243.45 455.64L1243.77 455.896L1218.5 476.828L1193.15 455.896L1190.65 457.823L1216.08 478.818L1189.44 500.84L1191.94 502.766L1218.5 480.808L1244.98 502.702L1244.58 503.023L1249.74 507.261L1211.64 507.197L1187.09 507.261L1192.26 503.023L1190.57 501.803ZM1250.79 503.216L1247.72 500.648L1247.4 500.905L1220.84 478.946L1246.27 457.951L1246.59 458.208L1249.58 455.768L1250.79 503.216ZM1193.07 438.754L1191.53 437.47L1187.98 440.166L1189.19 399.653L1191.13 401.129L1192.66 399.845L1194.2 398.561L1190.24 395.543L1225.68 395.672L1246.51 395.608L1242.64 398.561L1242.96 398.882L1218.5 417.566L1194.04 398.882L1191.62 400.872L1216 419.428L1192.02 437.726L1194.44 439.717L1218.5 421.354L1242.56 439.717L1242.23 439.974L1247.89 444.275L1211.72 444.211L1189.11 444.275L1194.68 440.038L1193.07 438.754ZM1249.02 440.359L1245.14 437.47L1244.82 437.726L1220.84 419.492L1245.22 400.937L1245.54 401.193L1247.81 399.46L1249.02 440.359ZM1195.49 384.115L1194.28 382.638L1189.52 385.078L1190.24 360.038L1194.68 362.285L1195.89 360.808L1197.11 359.331L1192.34 356.892L1224.8 356.956L1244.33 356.892L1239.57 359.331L1239.81 359.653L1218.34 370.696L1196.86 359.653L1195.01 361.964L1215.19 372.301L1194.6 382.895L1196.46 385.206L1218.34 373.97L1240.14 385.206L1239.89 385.527L1245.06 388.16L1211.72 388.096L1191.53 388.16L1196.7 385.527L1195.49 384.115ZM1247.4 385.27L1242.32 382.702L1242.07 383.023L1221.57 372.494L1241.67 362.157L1241.91 362.478L1246.68 360.038L1247.4 385.27ZM1154.16 815.511C1154.16 815.511 1154.07 815.511 1153.99 815.447C1154.07 815.511 1154.16 815.511 1154.16 815.511ZM1281.07 811.21C1281.23 811.274 1281.39 811.274 1281.47 811.338C1281.39 811.274 1281.23 811.274 1281.07 811.21Z" fill="#B4B6B9"/>
<path d="M587.168 466.555C586.845 466.169 586.28 465.977 585.715 465.977V466.041V465.977H581.113L579.498 408.32H581.274C582.324 408.256 583.454 408.449 584.504 408.128C585.553 407.807 586.36 407.1 586.683 406.201C587.41 404.404 585.472 402.413 583.212 402.542V402.67V402.606H579.256L577.641 345.527H578.529C579.498 345.527 580.628 345.592 581.597 345.142C582.485 344.693 583.131 343.986 583.373 343.152C583.777 341.482 581.92 339.749 579.821 339.813V339.941V339.877H577.561L576.027 286.523H577.157C579.094 286.779 581.274 285.559 581.436 283.89C581.678 282.285 579.902 280.68 577.803 280.744V280.808V280.744H575.865L574.493 231.563H575.865C577.803 231.691 579.74 230.343 579.74 228.738C579.821 227.132 578.045 225.72 576.107 225.784V225.913V225.848H574.331L573.04 181.739H574.816C576.753 181.739 578.449 180.327 578.368 178.786C578.368 177.245 576.672 175.897 574.735 175.961V176.025V175.961H572.878L571.748 137.373C572.394 137.373 572.959 137.373 573.605 137.373C575.461 137.181 576.834 135.768 576.672 134.291C576.592 132.815 574.896 131.595 573.04 131.659V131.787V131.723H571.506L570.779 106.812C571.586 106.812 572.313 106.811 573.12 106.747C574.089 106.49 574.493 105.592 574.331 104.885V102.767V100.648C574.331 99.8773 573.362 99.2353 572.474 99.2353V99.3637V99.0427H566.258C566.823 98.85 567.307 98.4648 567.388 97.9512C567.469 97.2449 567.388 96.6029 567.388 95.8966V93.9062C567.388 93.5852 567.469 93.2642 567.307 92.8789C567.146 92.4937 566.904 92.1727 566.5 91.9801C565.612 91.5306 564.724 91.7875 563.917 91.7232H561.414H556.328H553.502L537.84 72.0763L536.71 57.9512L535.58 72.0763L519.272 91.7232H515.8H510.714H508.211H506.919C506.516 91.7232 505.951 91.7875 505.628 91.9801C505.224 92.1727 504.982 92.4937 504.82 92.8789C504.74 93.2642 504.74 93.5852 504.74 93.9062V95.8966C504.74 96.6029 504.74 97.2449 504.74 97.9512C504.82 98.4006 505.224 98.7858 505.708 98.9784C503.448 98.9784 501.268 98.9785 498.927 99.1069C497.958 99.3637 497.554 100.263 497.716 100.969V103.023V105.142C497.716 105.913 498.685 106.555 499.573 106.555V106.426V106.555H502.479L501.753 131.402C501.187 131.402 500.622 131.402 499.976 131.402C498.2 131.595 496.747 133.007 496.909 134.484C496.989 135.961 498.685 137.181 500.461 137.116V137.052V137.181H501.51L500.542 175.704H498.604C496.666 175.704 495.052 177.116 495.132 178.593C495.132 180.134 496.828 181.418 498.685 181.418V181.354V181.482H500.299L499.008 225.592H497.554C495.617 225.463 493.76 226.811 493.76 228.352C493.599 229.893 495.375 231.37 497.312 231.306V231.242V231.37H498.846L497.393 280.551H496.586C494.648 280.295 492.468 281.515 492.388 283.184C492.145 284.789 493.921 286.33 495.94 286.266V286.202V286.266H497.232L495.698 339.62H494.648C493.679 339.62 492.549 339.556 491.661 340.006C490.773 340.455 490.127 341.161 489.966 341.996C489.562 343.665 491.338 345.399 493.518 345.335V345.271V345.399H495.617L494.002 402.478H492.791C491.742 402.542 490.611 402.349 489.562 402.67C488.512 402.991 487.705 403.697 487.382 404.532C487.14 405.174 487.301 405.816 487.624 406.394C487.624 406.394 487.624 406.394 487.624 406.458C488.189 407.486 489.4 408.256 490.854 408.192V408.128V408.192H493.841L492.145 465.848H486.171C485.606 465.913 485.041 466.169 484.718 466.555C484.395 466.94 484.476 467.453 484.476 467.839C484.476 468.288 484.476 468.802 484.799 469.123C485.122 469.508 485.687 469.701 486.252 469.701V469.636V469.701L539.293 469.765H565.774H579.014H585.634C586.199 469.701 586.764 469.444 587.006 469.059C587.329 468.673 587.248 468.16 587.248 467.774C587.491 467.453 587.491 466.94 587.168 466.555ZM565.451 459.813L538.324 436.442L564.482 413.906L564.724 414.099L567.55 411.659L569.003 462.574L565.693 459.685L565.451 459.813ZM562.221 412.173L562.544 412.365L536.548 434.773L510.552 412.365L508.534 413.842L534.692 436.378L507.565 459.749L509.584 461.226L536.548 437.983L563.513 461.226L563.19 461.418L568.276 465.848L532.592 465.784H506.031H504.659L509.745 461.418L508.453 460.455L507.162 459.556L504.013 462.253L505.466 411.787L508.05 414.035L509.341 413.071L510.633 412.108L506.112 408.192L542.361 408.256L566.581 408.192L562.221 412.173ZM563.755 396.25L538.324 373.328L563.19 350.856L563.432 351.049L565.774 348.93L567.227 399.01L563.917 396.057L563.755 396.25ZM560.849 349.251L561.172 349.444L536.548 371.659L511.925 349.38L509.907 350.792L534.772 373.264L509.341 396.185L511.36 397.598L536.548 374.869L561.737 397.598L561.414 397.791L566.5 402.413L531.543 402.349L506.516 402.413L511.602 397.855L510.31 396.892L509.018 395.993L506.031 398.689L507.485 349.059L509.584 350.985L510.875 350.086L512.167 349.187L508.05 345.463L542.119 345.527L564.966 345.463L560.849 349.251ZM562.383 333.906L538.324 312.397L561.979 291.274L562.221 291.466L564.078 289.797L565.451 336.282L562.625 333.778L562.383 333.906ZM559.638 289.604L559.88 289.797L536.468 310.728L513.055 289.797L511.037 291.274L534.692 312.397L510.633 333.906L512.651 335.383L536.468 314.067L560.284 335.383L559.961 335.576L564.563 339.685L531.059 339.62L508.292 339.685L512.894 335.576L511.602 334.677L510.31 333.778L507.727 336.089L509.018 290.054L510.633 291.531L511.925 290.632L513.217 289.733L509.584 286.458L542.2 286.523L563.19 286.458L559.638 289.604ZM560.768 274.966L538.405 255.447L559.88 236.699L560.122 236.892L562.625 234.773L563.836 277.213L561.01 274.773L560.768 274.966ZM557.539 235.03L557.862 235.222L536.548 253.778L515.235 235.222L513.217 236.699L534.692 255.447L512.329 274.966L514.347 276.442L536.548 257.052L558.75 276.442L558.427 276.635L562.948 280.551L531.381 280.487L510.068 280.551L514.589 276.635L513.297 275.672L512.006 274.709L509.503 276.892L510.714 234.901L512.894 236.828L514.185 235.864L515.477 234.901L511.279 231.306L542.038 231.37L561.575 231.306L557.539 235.03ZM514.508 221.29L513.217 220.327L511.037 222.124L512.086 184.95L514.185 186.683L515.477 185.72L516.769 184.757L512.894 181.547L542.119 181.611L560.122 181.547L556.247 184.757L556.489 184.95L536.468 201.515L516.446 184.95L514.508 186.49L534.611 203.12L513.54 220.519L515.477 221.996L536.468 204.661L557.458 221.996L557.135 222.253L561.252 225.592L531.139 225.527L511.683 225.592L515.719 222.253L514.508 221.29ZM562.221 222.381L559.799 220.327L559.557 220.519L538.486 203.12L558.588 186.49L558.831 186.683L561.172 184.757L562.221 222.381ZM516.527 171.338L515.316 170.311L512.49 172.429L513.378 140.391L514.912 141.547L516.123 140.519L517.334 139.492L514.185 137.116L542.2 137.181L558.669 137.116L555.601 139.492L555.843 139.749L536.468 154.516L517.092 139.749L515.235 141.29L534.53 155.993L515.558 170.439L517.415 171.98L536.468 157.47L555.52 171.98L555.278 172.173L559.719 175.576L531.139 175.511L513.297 175.576L517.738 172.173L516.527 171.338ZM560.768 172.622L557.7 170.311L557.458 170.503L538.486 156.057L557.781 141.354L558.023 141.547L559.799 140.198L560.768 172.622ZM518.464 128.128L517.495 126.972L513.701 128.898L514.266 109.059L517.818 110.856L518.787 109.701L519.756 108.545L515.962 106.619L541.634 106.683L557.054 106.619L553.341 108.545L553.583 108.802L536.629 117.534L519.675 108.802L518.222 110.6L534.207 118.818L517.899 127.165L519.352 128.962L536.629 120.038L553.906 128.898L553.664 129.155L557.781 131.274L531.381 131.21L515.396 131.274L519.433 129.155L518.464 128.128ZM559.476 129.027L555.44 126.972L555.278 127.229L539.051 118.882L554.955 110.664L555.117 110.921L558.831 108.994L559.476 129.027ZM485.687 469.572H485.606H485.687ZM586.118 466.169C586.199 466.234 586.36 466.234 586.441 466.298C586.36 466.234 586.28 466.234 586.118 466.169Z" fill="#CFCFCF"/>
<path d="M314.373 293.521C314.373 293.521 318.006 254.869 274.895 255.19C231.864 255.511 233.075 293.521 233.075 293.521C227.585 283.826 208.29 282.093 193.92 287.036C186.331 289.476 180.195 293.906 178.177 299.942C177.208 302.959 176.481 305.913 176.239 308.866C174.867 323.184 184.313 335.833 224.033 335.833C240.745 335.833 277.397 335.833 307.268 335.833C337.22 335.833 361.117 325.56 355.143 308.545C354.497 306.683 353.447 304.95 352.075 303.473C341.66 291.916 314.373 293.521 314.373 293.521Z" fill="#CFCFCF"/>
<path d="M1074.63 68.6742C1074.63 68.6742 1072.05 40.7449 1103.13 41.0018C1134.21 41.2586 1133.41 68.6742 1133.41 68.6742C1137.36 61.6759 1151.33 60.456 1161.66 63.9873C1167.15 65.785 1171.59 68.9953 1173.05 73.297C1173.77 75.48 1174.26 77.5988 1174.5 79.7176C1175.55 90.0546 1168.69 99.1718 1139.95 99.1718C1127.84 99.1718 1101.44 99.1718 1079.8 99.1718C1058.16 99.1718 1040.89 91.7239 1045.25 79.4607C1045.73 78.1124 1046.46 76.8925 1047.43 75.801C1054.93 67.5185 1074.63 68.6742 1074.63 68.6742Z" fill="#CFCFCF"/>
</g>
</svg>
